G04 Layer: BottomLayer*
G04 EasyEDA v6.3.53, 2020-06-23T11:31:42+02:00*
G04 9deb55b867614345ac0c6ea2e1a2c697,50b924b206514efda7368a069ed08794,10*
G04 Gerber Generator version 0.2*
G04 Scale: 100 percent, Rotated: No, Reflected: No *
G04 Dimensions in millimeters *
G04 leading zeros omitted , absolute positions ,3 integer and 3 decimal *
%FSLAX33Y33*%
%MOMM*%
G90*
G71D02*

%ADD12C,0.699999*%
%ADD15C,0.610006*%
%ADD16C,3.810000*%
%ADD17C,1.524000*%
%ADD18C,1.780007*%
%ADD19C,1.419860*%
%ADD20C,1.651000*%
%ADD21C,2.100580*%
%ADD22C,1.799996*%
%ADD23R,1.799996X1.799996*%
%ADD24R,1.211580X2.181860*%
%ADD25C,1.999996*%

%LPD*%

%LPD*%
G36*
G01X26599Y65141D02*
G01X22917Y65141D01*
G01X22917Y64331D01*
G01X25617Y64294D01*
G01X28316Y64257D01*
G01X28356Y63476D01*
G01X28397Y62694D01*
G01X23450Y62694D01*
G01X23450Y61885D01*
G01X25884Y61847D01*
G01X28316Y61810D01*
G01X28316Y60044D01*
G01X25550Y60006D01*
G01X22784Y59970D01*
G01X22784Y59160D01*
G01X26690Y59160D01*
G01X26828Y59161D01*
G01X26962Y59161D01*
G01X27089Y59162D01*
G01X27211Y59162D01*
G01X27329Y59163D01*
G01X27441Y59164D01*
G01X27549Y59165D01*
G01X27651Y59166D01*
G01X27749Y59167D01*
G01X27843Y59169D01*
G01X27932Y59170D01*
G01X28017Y59172D01*
G01X28097Y59174D01*
G01X28174Y59176D01*
G01X28246Y59178D01*
G01X28315Y59181D01*
G01X28380Y59184D01*
G01X28441Y59187D01*
G01X28499Y59191D01*
G01X28554Y59194D01*
G01X28605Y59198D01*
G01X28653Y59202D01*
G01X28698Y59206D01*
G01X28741Y59211D01*
G01X28780Y59217D01*
G01X28817Y59222D01*
G01X28851Y59227D01*
G01X28883Y59233D01*
G01X28912Y59240D01*
G01X28939Y59247D01*
G01X28965Y59254D01*
G01X28988Y59261D01*
G01X29009Y59268D01*
G01X29029Y59277D01*
G01X29047Y59285D01*
G01X29063Y59294D01*
G01X29078Y59304D01*
G01X29092Y59314D01*
G01X29105Y59324D01*
G01X29116Y59334D01*
G01X29127Y59346D01*
G01X29137Y59357D01*
G01X29146Y59369D01*
G01X29155Y59382D01*
G01X29163Y59395D01*
G01X29171Y59409D01*
G01X29185Y59437D01*
G01X29191Y59453D01*
G01X29196Y59474D01*
G01X29202Y59497D01*
G01X29208Y59523D01*
G01X29213Y59553D01*
G01X29219Y59585D01*
G01X29224Y59620D01*
G01X29229Y59659D01*
G01X29234Y59700D01*
G01X29238Y59743D01*
G01X29243Y59789D01*
G01X29248Y59837D01*
G01X29256Y59941D01*
G01X29260Y59997D01*
G01X29264Y60055D01*
G01X29268Y60115D01*
G01X29271Y60177D01*
G01X29275Y60240D01*
G01X29278Y60306D01*
G01X29282Y60373D01*
G01X29285Y60442D01*
G01X29287Y60513D01*
G01X29290Y60585D01*
G01X29293Y60659D01*
G01X29295Y60734D01*
G01X29298Y60811D01*
G01X29300Y60888D01*
G01X29302Y60967D01*
G01X29304Y61047D01*
G01X29305Y61128D01*
G01X29307Y61210D01*
G01X29308Y61293D01*
G01X29310Y61377D01*
G01X29311Y61461D01*
G01X29313Y61546D01*
G01X29313Y61631D01*
G01X29314Y61717D01*
G01X29315Y61890D01*
G01X29316Y61977D01*
G01X29316Y62324D01*
G01X29315Y62411D01*
G01X29314Y62584D01*
G01X29313Y62670D01*
G01X29313Y62755D01*
G01X29311Y62840D01*
G01X29310Y62924D01*
G01X29308Y63008D01*
G01X29307Y63091D01*
G01X29305Y63173D01*
G01X29304Y63254D01*
G01X29302Y63333D01*
G01X29300Y63413D01*
G01X29298Y63490D01*
G01X29295Y63567D01*
G01X29293Y63642D01*
G01X29287Y63788D01*
G01X29285Y63859D01*
G01X29282Y63928D01*
G01X29278Y63995D01*
G01X29275Y64061D01*
G01X29271Y64124D01*
G01X29268Y64186D01*
G01X29264Y64246D01*
G01X29260Y64304D01*
G01X29256Y64359D01*
G01X29252Y64412D01*
G01X29248Y64463D01*
G01X29243Y64512D01*
G01X29238Y64558D01*
G01X29234Y64601D01*
G01X29229Y64642D01*
G01X29224Y64680D01*
G01X29219Y64716D01*
G01X29213Y64748D01*
G01X29208Y64778D01*
G01X29202Y64804D01*
G01X29196Y64827D01*
G01X29191Y64848D01*
G01X29185Y64864D01*
G01X29171Y64892D01*
G01X29163Y64906D01*
G01X29155Y64919D01*
G01X29146Y64932D01*
G01X29137Y64943D01*
G01X29127Y64955D01*
G01X29105Y64977D01*
G01X29093Y64987D01*
G01X29079Y64997D01*
G01X29064Y65006D01*
G01X29048Y65015D01*
G01X29030Y65024D01*
G01X29011Y65032D01*
G01X28989Y65040D01*
G01X28967Y65047D01*
G01X28942Y65054D01*
G01X28915Y65061D01*
G01X28886Y65067D01*
G01X28855Y65073D01*
G01X28821Y65079D01*
G01X28785Y65084D01*
G01X28747Y65090D01*
G01X28705Y65094D01*
G01X28661Y65099D01*
G01X28614Y65103D01*
G01X28563Y65106D01*
G01X28510Y65110D01*
G01X28453Y65113D01*
G01X28393Y65116D01*
G01X28329Y65120D01*
G01X28262Y65122D01*
G01X28191Y65125D01*
G01X28116Y65127D01*
G01X28037Y65129D01*
G01X27954Y65131D01*
G01X27867Y65132D01*
G01X27775Y65134D01*
G01X27680Y65135D01*
G01X27579Y65136D01*
G01X27474Y65137D01*
G01X27364Y65138D01*
G01X27250Y65139D01*
G01X27130Y65139D01*
G01X27005Y65140D01*
G01X26740Y65140D01*
G01X26599Y65141D01*
G37*

%LPD*%
G36*
G01X21850Y65141D02*
G01X20923Y65141D01*
G01X20886Y62592D01*
G01X20850Y60044D01*
G01X15700Y59969D01*
G01X15742Y59599D01*
G01X15784Y59228D01*
G01X18817Y59191D01*
G01X21850Y59155D01*
G01X21850Y65141D01*
G37*

%LPD*%
G36*
G01X19471Y58169D02*
G01X19296Y58169D01*
G01X19218Y58168D01*
G01X19148Y58165D01*
G01X19089Y58162D01*
G01X19039Y58158D01*
G01X19001Y58153D01*
G01X18973Y58148D01*
G01X18956Y58142D01*
G01X18952Y58135D01*
G01X18960Y58128D01*
G01X18981Y58120D01*
G01X19015Y58113D01*
G01X19059Y58105D01*
G01X19107Y58099D01*
G01X19160Y58094D01*
G01X19216Y58091D01*
G01X19274Y58089D01*
G01X19334Y58088D01*
G01X19395Y58088D01*
G01X19455Y58090D01*
G01X19515Y58093D01*
G01X19574Y58098D01*
G01X19630Y58104D01*
G01X19682Y58111D01*
G01X19726Y58118D01*
G01X19756Y58126D01*
G01X19772Y58133D01*
G01X19776Y58140D01*
G01X19767Y58146D01*
G01X19746Y58151D01*
G01X19713Y58156D01*
G01X19669Y58160D01*
G01X19613Y58164D01*
G01X19547Y58167D01*
G01X19471Y58169D01*
G37*

%LPD*%
G36*
G01X14683Y58453D02*
G01X14595Y58453D01*
G01X14555Y58451D01*
G01X14519Y58449D01*
G01X14486Y58447D01*
G01X14456Y58443D01*
G01X14428Y58439D01*
G01X14403Y58435D01*
G01X14380Y58429D01*
G01X14360Y58423D01*
G01X14342Y58416D01*
G01X14326Y58408D01*
G01X14311Y58399D01*
G01X14299Y58390D01*
G01X14288Y58379D01*
G01X14280Y58368D01*
G01X14272Y58356D01*
G01X14266Y58344D01*
G01X14261Y58330D01*
G01X14257Y58316D01*
G01X14254Y58301D01*
G01X14252Y58284D01*
G01X14251Y58268D01*
G01X14250Y58249D01*
G01X14249Y58231D01*
G01X14249Y58211D01*
G01X14250Y58190D01*
G01X14250Y58123D01*
G01X14251Y58061D01*
G01X14252Y58007D01*
G01X14256Y57960D01*
G01X14264Y57920D01*
G01X14275Y57887D01*
G01X14293Y57860D01*
G01X14317Y57839D01*
G01X14349Y57823D01*
G01X14390Y57813D01*
G01X14441Y57807D01*
G01X14503Y57805D01*
G01X14577Y57808D01*
G01X14664Y57814D01*
G01X14766Y57823D01*
G01X14883Y57835D01*
G01X15017Y57849D01*
G01X15058Y57853D01*
G01X15102Y57858D01*
G01X15149Y57863D01*
G01X15198Y57867D01*
G01X15250Y57872D01*
G01X15304Y57878D01*
G01X15361Y57883D01*
G01X15420Y57889D01*
G01X15481Y57894D01*
G01X15543Y57900D01*
G01X15673Y57912D01*
G01X15809Y57924D01*
G01X15880Y57930D01*
G01X15950Y57936D01*
G01X16022Y57942D01*
G01X16094Y57949D01*
G01X16242Y57961D01*
G01X16316Y57968D01*
G01X16464Y57980D01*
G01X16539Y57986D01*
G01X16761Y58004D01*
G01X16834Y58010D01*
G01X16906Y58016D01*
G01X17048Y58026D01*
G01X17117Y58032D01*
G01X18450Y58132D01*
G01X16784Y58284D01*
G01X16633Y58298D01*
G01X16489Y58311D01*
G01X16350Y58324D01*
G01X16218Y58336D01*
G01X16091Y58348D01*
G01X15969Y58359D01*
G01X15854Y58369D01*
G01X15743Y58379D01*
G01X15638Y58389D01*
G01X15537Y58397D01*
G01X15442Y58405D01*
G01X15351Y58413D01*
G01X15265Y58419D01*
G01X15184Y58426D01*
G01X15107Y58432D01*
G01X15035Y58436D01*
G01X14966Y58441D01*
G01X14902Y58444D01*
G01X14842Y58447D01*
G01X14785Y58450D01*
G01X14732Y58451D01*
G01X14683Y58453D01*
G37*

%LPD*%
G36*
G01X30650Y66500D02*
G01X14250Y66500D01*
G01X14261Y62592D01*
G01X14262Y62485D01*
G01X14262Y62273D01*
G01X14263Y62169D01*
G01X14263Y61962D01*
G01X14264Y61860D01*
G01X14264Y61760D01*
G01X14265Y61660D01*
G01X14266Y61561D01*
G01X14266Y61463D01*
G01X14267Y61367D01*
G01X14267Y61272D01*
G01X14268Y61178D01*
G01X14269Y61085D01*
G01X14270Y60994D01*
G01X14270Y60904D01*
G01X14271Y60815D01*
G01X14272Y60728D01*
G01X14273Y60642D01*
G01X14274Y60558D01*
G01X14274Y60475D01*
G01X14275Y60394D01*
G01X14276Y60314D01*
G01X14277Y60236D01*
G01X14278Y60160D01*
G01X14279Y60085D01*
G01X14281Y59941D01*
G01X14282Y59872D01*
G01X14283Y59804D01*
G01X14284Y59739D01*
G01X14285Y59675D01*
G01X14286Y59614D01*
G01X14287Y59554D01*
G01X14288Y59496D01*
G01X14290Y59441D01*
G01X14291Y59387D01*
G01X14292Y59336D01*
G01X14293Y59287D01*
G01X14295Y59240D01*
G01X14296Y59196D01*
G01X14297Y59153D01*
G01X14298Y59113D01*
G01X14299Y59075D01*
G01X14300Y59040D01*
G01X14302Y59007D01*
G01X14303Y58977D01*
G01X14304Y58949D01*
G01X14305Y58924D01*
G01X14307Y58902D01*
G01X14308Y58881D01*
G01X14309Y58864D01*
G01X14310Y58849D01*
G01X14312Y58838D01*
G01X14313Y58828D01*
G01X14314Y58822D01*
G01X14315Y58818D01*
G01X14317Y58818D01*
G01X14318Y58820D01*
G01X14319Y58825D01*
G01X14323Y58843D01*
G01X14326Y58855D01*
G01X14328Y58869D01*
G01X14330Y58885D01*
G01X14332Y58903D01*
G01X14335Y58922D01*
G01X14338Y58944D01*
G01X14340Y58968D01*
G01X14343Y58994D01*
G01X14346Y59021D01*
G01X14349Y59050D01*
G01X14352Y59081D01*
G01X14356Y59113D01*
G01X14360Y59148D01*
G01X14363Y59184D01*
G01X14367Y59222D01*
G01X14370Y59261D01*
G01X14374Y59302D01*
G01X14378Y59345D01*
G01X14382Y59389D01*
G01X14386Y59434D01*
G01X14391Y59482D01*
G01X14395Y59530D01*
G01X14399Y59580D01*
G01X14404Y59632D01*
G01X14408Y59685D01*
G01X14413Y59739D01*
G01X14418Y59795D01*
G01X14423Y59852D01*
G01X14428Y59910D01*
G01X14432Y59969D01*
G01X14437Y60030D01*
G01X14442Y60092D01*
G01X14447Y60155D01*
G01X14453Y60219D01*
G01X14463Y60351D01*
G01X14469Y60418D01*
G01X14474Y60487D01*
G01X14479Y60557D01*
G01X14485Y60627D01*
G01X14491Y60699D01*
G01X14496Y60772D01*
G01X14502Y60845D01*
G01X14507Y60919D01*
G01X14513Y60994D01*
G01X14525Y61146D01*
G01X14531Y61224D01*
G01X14536Y61302D01*
G01X14542Y61381D01*
G01X14549Y61461D01*
G01X14554Y61541D01*
G01X14560Y61622D01*
G01X14572Y61785D01*
G01X14578Y61868D01*
G01X14590Y62035D01*
G01X14602Y62204D01*
G01X14608Y62288D01*
G01X14615Y62374D01*
G01X14621Y62460D01*
G01X14626Y62546D01*
G01X14638Y62719D01*
G01X14651Y62892D01*
G01X14657Y62980D01*
G01X14662Y63067D01*
G01X14675Y63243D01*
G01X14681Y63330D01*
G01X14686Y63418D01*
G01X14704Y63682D01*
G01X14715Y63858D01*
G01X14721Y63945D01*
G01X14727Y64033D01*
G01X14734Y64149D01*
G01X14741Y64258D01*
G01X14746Y64360D01*
G01X14750Y64454D01*
G01X14754Y64542D01*
G01X14756Y64623D01*
G01X14757Y64698D01*
G01X14757Y64767D01*
G01X14756Y64831D01*
G01X14754Y64889D01*
G01X14750Y64943D01*
G01X14746Y64992D01*
G01X14740Y65037D01*
G01X14732Y65077D01*
G01X14723Y65115D01*
G01X14713Y65148D01*
G01X14701Y65179D01*
G01X14688Y65207D01*
G01X14673Y65233D01*
G01X14656Y65256D01*
G01X14638Y65278D01*
G01X14619Y65298D01*
G01X14597Y65317D01*
G01X14574Y65335D01*
G01X14532Y65369D01*
G01X14500Y65398D01*
G01X14481Y65424D01*
G01X14476Y65446D01*
G01X14484Y65465D01*
G01X14507Y65481D01*
G01X14545Y65495D01*
G01X14600Y65508D01*
G01X14672Y65519D01*
G01X14762Y65529D01*
G01X14871Y65539D01*
G01X15000Y65548D01*
G01X15055Y65551D01*
G01X15111Y65555D01*
G01X15170Y65558D01*
G01X15231Y65561D01*
G01X15292Y65563D01*
G01X15355Y65566D01*
G01X15418Y65568D01*
G01X15545Y65572D01*
G01X15609Y65574D01*
G01X15733Y65576D01*
G01X15794Y65577D01*
G01X15965Y65577D01*
G01X16018Y65576D01*
G01X16068Y65576D01*
G01X16115Y65574D01*
G01X16159Y65573D01*
G01X16231Y65572D01*
G01X16304Y65575D01*
G01X16380Y65581D01*
G01X16456Y65591D01*
G01X16532Y65604D01*
G01X16606Y65619D01*
G01X16679Y65637D01*
G01X16748Y65657D01*
G01X16812Y65679D01*
G01X16871Y65703D01*
G01X16924Y65729D01*
G01X16970Y65756D01*
G01X17032Y65794D01*
G01X17096Y65826D01*
G01X17157Y65851D01*
G01X17216Y65868D01*
G01X17269Y65878D01*
G01X17316Y65879D01*
G01X17354Y65872D01*
G01X17382Y65855D01*
G01X17418Y65829D01*
G01X17432Y65833D01*
G01X17425Y65865D01*
G01X17397Y65923D01*
G01X17371Y65993D01*
G01X17381Y66047D01*
G01X17423Y66081D01*
G01X17498Y66093D01*
G01X17578Y66102D01*
G01X17650Y66128D01*
G01X17706Y66167D01*
G01X17739Y66214D01*
G01X17742Y66217D01*
G01X17746Y66220D01*
G01X17754Y66224D01*
G01X17763Y66226D01*
G01X17774Y66229D01*
G01X17788Y66233D01*
G01X17804Y66235D01*
G01X17822Y66238D01*
G01X17842Y66240D01*
G01X17865Y66243D01*
G01X17889Y66245D01*
G01X17916Y66247D01*
G01X17945Y66249D01*
G01X17975Y66251D01*
G01X18008Y66253D01*
G01X18043Y66255D01*
G01X18080Y66256D01*
G01X18118Y66258D01*
G01X18159Y66259D01*
G01X18202Y66261D01*
G01X18246Y66262D01*
G01X18293Y66263D01*
G01X18341Y66265D01*
G01X18391Y66265D01*
G01X18443Y66266D01*
G01X18497Y66267D01*
G01X18552Y66268D01*
G01X18609Y66268D01*
G01X18668Y66269D01*
G01X18791Y66269D01*
G01X18855Y66270D01*
G01X18988Y66270D01*
G01X19057Y66269D01*
G01X19199Y66269D01*
G01X19273Y66268D01*
G01X19348Y66268D01*
G01X19424Y66267D01*
G01X19503Y66267D01*
G01X19582Y66266D01*
G01X19663Y66265D01*
G01X19745Y66264D01*
G01X19829Y66263D01*
G01X19914Y66261D01*
G01X20000Y66259D01*
G01X20087Y66258D01*
G01X20176Y66256D01*
G01X20267Y66255D01*
G01X20358Y66253D01*
G01X20450Y66251D01*
G01X20544Y66249D01*
G01X20639Y66247D01*
G01X20735Y66245D01*
G01X20833Y66243D01*
G01X20932Y66241D01*
G01X21031Y66238D01*
G01X21132Y66236D01*
G01X21233Y66233D01*
G01X21336Y66230D01*
G01X21440Y66227D01*
G01X21650Y66221D01*
G01X21778Y66217D01*
G01X21908Y66213D01*
G01X21974Y66212D01*
G01X22040Y66210D01*
G01X22107Y66208D01*
G01X22173Y66206D01*
G01X22307Y66202D01*
G01X22375Y66201D01*
G01X22442Y66198D01*
G01X22510Y66197D01*
G01X22648Y66193D01*
G01X22716Y66191D01*
G01X22785Y66190D01*
G01X22854Y66188D01*
G01X22994Y66184D01*
G01X23063Y66183D01*
G01X23133Y66181D01*
G01X23273Y66178D01*
G01X23344Y66176D01*
G01X23414Y66174D01*
G01X23555Y66171D01*
G01X23625Y66169D01*
G01X23978Y66161D01*
G01X24049Y66159D01*
G01X24260Y66155D01*
G01X24401Y66152D01*
G01X24471Y66151D01*
G01X24541Y66149D01*
G01X24611Y66148D01*
G01X24820Y66143D01*
G01X24889Y66142D01*
G01X25027Y66139D01*
G01X25096Y66138D01*
G01X25232Y66136D01*
G01X25300Y66134D01*
G01X25367Y66133D01*
G01X25435Y66131D01*
G01X25569Y66129D01*
G01X25767Y66126D01*
G01X25832Y66124D01*
G01X25897Y66123D01*
G01X26089Y66120D01*
G01X26278Y66117D01*
G01X26339Y66116D01*
G01X26401Y66116D01*
G01X26462Y66115D01*
G01X26582Y66113D01*
G01X26700Y66111D01*
G01X26758Y66111D01*
G01X26816Y66110D01*
G01X26873Y66109D01*
G01X26929Y66108D01*
G01X26985Y66108D01*
G01X27095Y66106D01*
G01X27148Y66106D01*
G01X27202Y66105D01*
G01X27254Y66105D01*
G01X27306Y66104D01*
G01X27357Y66103D01*
G01X27407Y66103D01*
G01X27457Y66102D01*
G01X27554Y66102D01*
G01X27601Y66101D01*
G01X27694Y66101D01*
G01X27738Y66100D01*
G01X27868Y66100D01*
G01X27909Y66099D01*
G01X28096Y66099D01*
G01X28237Y66098D01*
G01X28372Y66098D01*
G01X28501Y66097D01*
G01X28625Y66096D01*
G01X28744Y66095D01*
G01X28858Y66093D01*
G01X28966Y66092D01*
G01X29070Y66090D01*
G01X29169Y66088D01*
G01X29263Y66086D01*
G01X29352Y66084D01*
G01X29437Y66082D01*
G01X29517Y66079D01*
G01X29593Y66076D01*
G01X29665Y66073D01*
G01X29733Y66069D01*
G01X29796Y66065D01*
G01X29856Y66061D01*
G01X29912Y66057D01*
G01X29964Y66053D01*
G01X30013Y66048D01*
G01X30058Y66043D01*
G01X30099Y66037D01*
G01X30138Y66032D01*
G01X30173Y66026D01*
G01X30204Y66020D01*
G01X30233Y66013D01*
G01X30259Y66006D01*
G01X30282Y65998D01*
G01X30303Y65991D01*
G01X30321Y65983D01*
G01X30336Y65974D01*
G01X30349Y65965D01*
G01X30360Y65956D01*
G01X30369Y65946D01*
G01X30375Y65936D01*
G01X30380Y65926D01*
G01X30382Y65915D01*
G01X30383Y65903D01*
G01X30383Y65891D01*
G01X30382Y65874D01*
G01X30381Y65853D01*
G01X30379Y65827D01*
G01X30377Y65797D01*
G01X30374Y65762D01*
G01X30371Y65724D01*
G01X30368Y65681D01*
G01X30364Y65635D01*
G01X30360Y65585D01*
G01X30355Y65531D01*
G01X30350Y65475D01*
G01X30345Y65415D01*
G01X30339Y65352D01*
G01X30333Y65285D01*
G01X30327Y65216D01*
G01X30320Y65144D01*
G01X30313Y65070D01*
G01X30305Y64993D01*
G01X30298Y64914D01*
G01X30290Y64832D01*
G01X30282Y64749D01*
G01X30274Y64664D01*
G01X30256Y64488D01*
G01X30238Y64306D01*
G01X30229Y64212D01*
G01X30219Y64118D01*
G01X30210Y64023D01*
G01X30190Y63830D01*
G01X30184Y63770D01*
G01X30178Y63709D01*
G01X30166Y63585D01*
G01X30148Y63393D01*
G01X30136Y63263D01*
G01X30124Y63131D01*
G01X30119Y63064D01*
G01X30107Y62930D01*
G01X30101Y62862D01*
G01X30096Y62795D01*
G01X30091Y62727D01*
G01X30080Y62592D01*
G01X30075Y62524D01*
G01X30059Y62321D01*
G01X30054Y62254D01*
G01X30050Y62187D01*
G01X30045Y62120D01*
G01X30040Y62054D01*
G01X30035Y61989D01*
G01X30031Y61923D01*
G01X30027Y61858D01*
G01X30019Y61730D01*
G01X30015Y61667D01*
G01X30007Y61543D01*
G01X30003Y61482D01*
G01X30000Y61422D01*
G01X29996Y61363D01*
G01X29993Y61305D01*
G01X29990Y61248D01*
G01X29987Y61192D01*
G01X29985Y61137D01*
G01X29982Y61082D01*
G01X29980Y61030D01*
G01X29977Y60978D01*
G01X29975Y60928D01*
G01X29973Y60879D01*
G01X29971Y60831D01*
G01X29969Y60785D01*
G01X29968Y60740D01*
G01X29967Y60697D01*
G01X29965Y60655D01*
G01X29962Y60518D01*
G01X29959Y60388D01*
G01X29955Y60266D01*
G01X29952Y60150D01*
G01X29948Y60040D01*
G01X29944Y59937D01*
G01X29939Y59840D01*
G01X29935Y59749D01*
G01X29930Y59665D01*
G01X29925Y59585D01*
G01X29919Y59511D01*
G01X29912Y59443D01*
G01X29906Y59379D01*
G01X29898Y59321D01*
G01X29890Y59267D01*
G01X29881Y59218D01*
G01X29871Y59172D01*
G01X29861Y59132D01*
G01X29850Y59095D01*
G01X29837Y59062D01*
G01X29824Y59032D01*
G01X29809Y59006D01*
G01X29793Y58983D01*
G01X29776Y58964D01*
G01X29759Y58946D01*
G01X29739Y58932D01*
G01X29719Y58920D01*
G01X29697Y58911D01*
G01X29674Y58903D01*
G01X29649Y58898D01*
G01X29622Y58894D01*
G01X29594Y58891D01*
G01X29565Y58890D01*
G01X29534Y58891D01*
G01X29501Y58892D01*
G01X29465Y58894D01*
G01X29367Y58900D01*
G01X29270Y58905D01*
G01X29175Y58908D01*
G01X29081Y58910D01*
G01X28989Y58912D01*
G01X28901Y58912D01*
G01X28814Y58911D01*
G01X28730Y58909D01*
G01X28650Y58906D01*
G01X28573Y58902D01*
G01X28501Y58897D01*
G01X28432Y58891D01*
G01X28368Y58885D01*
G01X28308Y58878D01*
G01X28254Y58869D01*
G01X28205Y58860D01*
G01X28162Y58850D01*
G01X28125Y58840D01*
G01X28094Y58828D01*
G01X28069Y58816D01*
G01X28052Y58804D01*
G01X28042Y58790D01*
G01X28039Y58777D01*
G01X28044Y58762D01*
G01X28047Y58744D01*
G01X28037Y58725D01*
G01X28014Y58705D01*
G01X27980Y58686D01*
G01X27934Y58665D01*
G01X27878Y58645D01*
G01X27812Y58625D01*
G01X27738Y58606D01*
G01X27656Y58588D01*
G01X27567Y58570D01*
G01X27472Y58555D01*
G01X27371Y58541D01*
G01X27254Y58525D01*
G01X27149Y58508D01*
G01X27058Y58492D01*
G01X26978Y58475D01*
G01X26911Y58458D01*
G01X26857Y58440D01*
G01X26816Y58422D01*
G01X26788Y58404D01*
G01X26772Y58385D01*
G01X26769Y58367D01*
G01X26780Y58348D01*
G01X26803Y58329D01*
G01X26879Y58272D01*
G01X26897Y58236D01*
G01X26854Y58217D01*
G01X26750Y58210D01*
G01X26659Y58218D01*
G01X26585Y58242D01*
G01X26535Y58277D01*
G01X26517Y58320D01*
G01X26512Y58336D01*
G01X26501Y58349D01*
G01X26482Y58361D01*
G01X26457Y58370D01*
G01X26425Y58377D01*
G01X26386Y58382D01*
G01X26341Y58386D01*
G01X26290Y58387D01*
G01X26234Y58387D01*
G01X26173Y58385D01*
G01X26106Y58380D01*
G01X26035Y58375D01*
G01X25959Y58367D01*
G01X25879Y58357D01*
G01X25796Y58345D01*
G01X25709Y58332D01*
G01X25618Y58317D01*
G01X25525Y58300D01*
G01X25429Y58282D01*
G01X25331Y58262D01*
G01X25252Y58242D01*
G01X25191Y58222D01*
G01X25146Y58200D01*
G01X25117Y58175D01*
G01X25104Y58147D01*
G01X25107Y58116D01*
G01X25126Y58082D01*
G01X25158Y58043D01*
G01X25198Y58008D01*
G01X25236Y57982D01*
G01X25275Y57967D01*
G01X25315Y57963D01*
G01X25355Y57970D01*
G01X25398Y57987D01*
G01X25444Y58014D01*
G01X25493Y58052D01*
G01X25545Y58092D01*
G01X25592Y58120D01*
G01X25636Y58134D01*
G01X25677Y58136D01*
G01X25717Y58123D01*
G01X25759Y58098D01*
G01X25802Y58059D01*
G01X25848Y58006D01*
G01X25860Y57994D01*
G01X25871Y57982D01*
G01X25885Y57970D01*
G01X25900Y57959D01*
G01X25917Y57949D01*
G01X25935Y57938D01*
G01X25955Y57929D01*
G01X25977Y57920D01*
G01X26001Y57911D01*
G01X26027Y57902D01*
G01X26055Y57895D01*
G01X26086Y57887D01*
G01X26119Y57880D01*
G01X26154Y57873D01*
G01X26193Y57867D01*
G01X26234Y57861D01*
G01X26278Y57855D01*
G01X26324Y57850D01*
G01X26375Y57844D01*
G01X26428Y57840D01*
G01X26485Y57835D01*
G01X26544Y57831D01*
G01X26608Y57828D01*
G01X26675Y57824D01*
G01X26746Y57821D01*
G01X26821Y57818D01*
G01X26899Y57815D01*
G01X26982Y57813D01*
G01X27069Y57811D01*
G01X27160Y57809D01*
G01X27256Y57807D01*
G01X27356Y57806D01*
G01X27461Y57804D01*
G01X27570Y57803D01*
G01X27684Y57802D01*
G01X27804Y57802D01*
G01X27928Y57801D01*
G01X28192Y57801D01*
G01X28333Y57800D01*
G01X30650Y57800D01*
G01X30650Y66500D01*
G37*

%LPC*%
G36*
G01X26954Y58052D02*
G01X26861Y58061D01*
G01X26768Y58059D01*
G01X26704Y58045D01*
G01X26675Y58021D01*
G01X26686Y57990D01*
G01X26731Y57964D01*
G01X26794Y57953D01*
G01X26868Y57958D01*
G01X26942Y57980D01*
G01X26996Y58010D01*
G01X27000Y58034D01*
G01X26954Y58052D01*
G37*
G36*
G01X26421Y58052D02*
G01X26328Y58061D01*
G01X26235Y58059D01*
G01X26171Y58045D01*
G01X26142Y58021D01*
G01X26153Y57990D01*
G01X26198Y57964D01*
G01X26261Y57953D01*
G01X26334Y57958D01*
G01X26408Y57980D01*
G01X26462Y58010D01*
G01X26466Y58034D01*
G01X26421Y58052D01*
G37*
G36*
G01X30216Y59248D02*
G01X30195Y59258D01*
G01X30167Y59251D01*
G01X30132Y59227D01*
G01X30090Y59187D01*
G01X30049Y59142D01*
G01X30020Y59100D01*
G01X30002Y59062D01*
G01X29996Y59024D01*
G01X30002Y58986D01*
G01X30020Y58947D01*
G01X30049Y58906D01*
G01X30090Y58860D01*
G01X30132Y58821D01*
G01X30167Y58797D01*
G01X30195Y58790D01*
G01X30216Y58799D01*
G01X30232Y58827D01*
G01X30242Y58874D01*
G01X30248Y58939D01*
G01X30250Y59024D01*
G01X30248Y59109D01*
G01X30242Y59174D01*
G01X30232Y59221D01*
G01X30216Y59248D01*
G37*

%LPD*%
G54D12*
G01X64769Y56487D02*
G01X62229Y58667D01*
G01X62229Y60810D02*
G01X62229Y58667D01*
G01X110817Y31578D02*
G01X112393Y33154D01*
G01X112393Y48732D01*
G01X99394Y61730D01*
G01X99394Y66296D01*
G01X96329Y69361D01*
G01X77709Y69361D01*
G01X71302Y62954D01*
G01X69849Y62954D01*
G01X54609Y60810D02*
G01X54609Y66681D01*
G01X40990Y80301D01*
G01X36069Y80301D01*
G01X33619Y82750D01*
G01X52069Y62954D02*
G01X50763Y62954D01*
G01X31079Y82638D01*
G01X31079Y82750D01*
G01X105790Y52750D02*
G01X97980Y60560D01*
G01X97980Y65148D01*
G01X95628Y67500D01*
G01X73150Y48450D02*
G01X77469Y52770D01*
G01X77469Y53190D01*
G01X58050Y48450D02*
G01X53492Y48450D01*
G01X53462Y48420D01*
G01X3997Y29489D02*
G01X1136Y32350D01*
G01X1136Y37628D01*
G01X3998Y40490D01*
G01X3997Y18493D02*
G01X1136Y21354D01*
G01X1136Y26628D01*
G01X3997Y29489D01*
G01X3997Y18493D02*
G01X1137Y15633D01*
G01X1137Y10352D01*
G01X3998Y7490D01*
G01X102998Y40490D02*
G01X105858Y43350D01*
G01X105858Y45999D01*
G01X103816Y48042D01*
G01X90441Y48042D01*
G01X81746Y56737D01*
G01X71253Y56737D01*
G01X69849Y55334D01*
G01X109501Y40490D02*
G01X106641Y37631D01*
G01X106641Y32434D01*
G01X109501Y29574D01*
G01X109501Y29491D01*
G01X69849Y53190D02*
G01X69849Y55334D01*
G01X109501Y29491D02*
G01X112303Y26690D01*
G01X112303Y21292D01*
G01X109501Y18490D01*
G01X109501Y7490D02*
G01X112307Y10296D01*
G01X112307Y15684D01*
G01X109501Y18490D01*
G01X59689Y60810D02*
G01X59689Y65650D01*
G01X62789Y68750D01*
G01X57149Y60810D02*
G01X57149Y68190D01*
G01X57709Y68750D01*
G01X77469Y60810D02*
G01X77469Y66842D01*
G01X54609Y53190D02*
G01X54609Y55334D01*
G01X54609Y55334D02*
G01X45833Y55334D01*
G01X39936Y49437D01*
G01X39936Y28138D01*
G01X36997Y25199D01*
G01X36997Y23012D01*
G01X87249Y60730D02*
G01X84903Y58384D01*
G01X66667Y58384D01*
G01X64769Y56487D01*
G01X62229Y60810D02*
G01X62229Y62954D01*
G01X62229Y62954D02*
G01X65162Y62954D01*
G01X70959Y68750D01*
G01X64769Y53190D02*
G01X64769Y55334D01*
G01X49529Y60810D02*
G01X49529Y58667D01*
G01X49529Y58667D02*
G01X45801Y58667D01*
G01X23459Y81009D01*
G01X23459Y82750D01*
G01X87249Y63270D02*
G01X87527Y63270D01*
G01X97120Y53677D01*
G01X97120Y52750D01*
G01X69849Y60810D02*
G01X69849Y62954D01*
G01X102998Y23011D02*
G01X106327Y26340D01*
G01X106327Y30764D01*
G01X80997Y23012D02*
G01X87500Y23012D01*
G01X95634Y37623D02*
G01X98501Y40490D01*
G01X98501Y29489D02*
G01X95634Y32355D01*
G01X95634Y37623D01*
G01X95634Y37623D02*
G01X94865Y37623D01*
G01X91998Y40490D01*
G01X21501Y29489D02*
G01X18249Y32740D01*
G01X18249Y37239D01*
G01X14998Y40490D01*
G01X21501Y18491D02*
G01X18638Y21353D01*
G01X18638Y26627D01*
G01X21501Y29489D01*
G01X98501Y18491D02*
G01X95639Y21353D01*
G01X95639Y26627D01*
G01X98501Y29489D01*
G01X98501Y7490D02*
G01X95656Y10335D01*
G01X95656Y15646D01*
G01X98501Y18491D01*
G01X21501Y7490D02*
G01X18656Y10335D01*
G01X18656Y15646D01*
G01X21501Y18491D01*
G01X36997Y40490D02*
G01X34736Y42750D01*
G01X31001Y42750D01*
G01X29644Y44107D01*
G01X29644Y48420D01*
G01X73635Y37623D02*
G01X76502Y40490D01*
G01X73635Y37623D02*
G01X72866Y37623D01*
G01X69999Y40490D01*
G01X76502Y29489D02*
G01X73635Y32355D01*
G01X73635Y37623D01*
G01X43499Y18491D02*
G01X40637Y21353D01*
G01X40637Y26627D01*
G01X43499Y29489D01*
G01X76502Y18491D02*
G01X73640Y21353D01*
G01X73640Y26627D01*
G01X76502Y29489D01*
G01X76502Y7490D02*
G01X73657Y10335D01*
G01X73657Y15646D01*
G01X76502Y18491D01*
G01X43499Y7490D02*
G01X40655Y10335D01*
G01X40655Y15646D01*
G01X43499Y18491D01*
G01X80009Y53190D02*
G01X80009Y51047D01*
G01X65501Y40490D02*
G01X67938Y42927D01*
G01X71676Y42927D01*
G01X73569Y44819D01*
G01X73569Y45866D01*
G01X78750Y51047D01*
G01X80009Y51047D01*
G01X54500Y29489D02*
G01X51634Y32355D01*
G01X51634Y37623D01*
G01X54500Y40490D01*
G01X54500Y18491D02*
G01X51638Y21353D01*
G01X51638Y26627D01*
G01X54500Y29489D01*
G01X61003Y25221D02*
G01X58999Y27225D01*
G01X58999Y29489D01*
G01X54500Y7490D02*
G01X51655Y10335D01*
G01X51655Y15646D01*
G01X54500Y18491D01*
G01X80997Y45011D02*
G01X80997Y49056D01*
G01X98501Y45011D02*
G01X91998Y45011D01*
G01X59689Y53190D02*
G01X59689Y57764D01*
G01X74929Y53190D02*
G01X74929Y55334D01*
G01X74929Y55334D02*
G01X81155Y55334D01*
G01X84698Y51791D01*
G01X84698Y43292D01*
G01X87500Y40490D01*
G01X32501Y29489D02*
G01X29635Y32355D01*
G01X29635Y37624D01*
G01X32501Y40490D01*
G01X32501Y18491D02*
G01X29639Y21353D01*
G01X29639Y26627D01*
G01X32501Y29489D01*
G01X87500Y29489D02*
G01X84655Y32334D01*
G01X84655Y37645D01*
G01X87500Y40490D01*
G01X32501Y7490D02*
G01X29656Y10335D01*
G01X29656Y15646D01*
G01X32501Y18491D01*
G01X87500Y7490D02*
G01X84655Y10335D01*
G01X84655Y15646D01*
G01X87500Y18491D01*
G01X47998Y45011D02*
G01X49529Y46542D01*
G01X49529Y53190D01*
G01X67309Y53190D02*
G01X67309Y50602D01*
G01X62406Y45699D01*
G01X62406Y18140D01*
G01X59966Y15700D01*
G01X58189Y15700D01*
G01X54500Y12011D01*
G01X52069Y53190D02*
G01X52069Y51047D01*
G01X47998Y34010D02*
G01X47998Y35971D01*
G01X51249Y39223D01*
G01X51249Y50227D01*
G01X52069Y51047D01*
G01X52069Y60810D02*
G01X52069Y62954D01*
G01X46989Y60810D02*
G01X46989Y62954D01*
G01X46989Y62954D02*
G01X45564Y62954D01*
G01X25999Y82518D01*
G01X25999Y82750D01*
G01X80009Y60810D02*
G01X80009Y62954D01*
G01X80009Y62954D02*
G01X84556Y67500D01*
G01X95628Y67500D01*
G01X91926Y78823D02*
G01X100797Y69952D01*
G01X100797Y64823D01*
G01X103370Y62250D01*
G01X100696Y49444D02*
G01X100696Y52485D01*
G01X87897Y65285D01*
G01X86381Y65285D01*
G01X84696Y63601D01*
G01X84696Y63360D01*
G01X64769Y56487D02*
G01X64769Y55334D01*
G01X20919Y82211D02*
G01X14999Y76290D01*
G01X3750Y76290D01*
G54D16*
G01X4749Y83250D03*
G01X108749Y83250D03*
G01X4749Y3250D03*
G01X108749Y3250D03*
G54D17*
G01X2649Y65650D03*
G01X5949Y66450D03*
G01X21250Y52000D03*
G01X23749Y50501D03*
G01X4500Y50750D03*
G01X3850Y52950D03*
G01X26999Y51000D03*
G01X100999Y77000D03*
G01X99499Y74750D03*
G01X105499Y73750D03*
G01X110749Y77250D03*
G54D18*
G01X18410Y82710D03*
G01X20950Y82710D03*
G01X23490Y82710D03*
G01X26030Y82710D03*
G01X28570Y82710D03*
G01X31110Y82710D03*
G01X33650Y82710D03*
G54D19*
G01X89378Y52750D03*
G01X97120Y52750D03*
G54D20*
G01X57709Y68750D03*
G01X62789Y68750D03*
G54D19*
G01X95628Y67500D03*
G01X103370Y67500D03*
G01X95628Y62250D03*
G01X103370Y62250D03*
G54D21*
G01X62279Y81000D03*
G01X54659Y81000D03*
G01X90219Y81000D03*
G01X97839Y81000D03*
G54D22*
G01X110749Y71600D03*
G01X110749Y69060D03*
G01X110749Y66520D03*
G01X110749Y63980D03*
G01X110749Y61440D03*
G54D23*
G01X110749Y58900D03*
G54D20*
G01X87249Y63270D03*
G01X87249Y60730D03*
G54D19*
G01X70959Y68750D03*
G01X73540Y68750D03*
G01X47459Y68750D03*
G01X50040Y68750D03*
G01X103209Y52750D03*
G01X105790Y52750D03*
G54D24*
G01X80009Y60810D03*
G01X77469Y60810D03*
G01X64769Y60810D03*
G01X62229Y60810D03*
G01X74929Y60810D03*
G01X72389Y60810D03*
G01X67309Y60810D03*
G01X69849Y60810D03*
G01X59689Y60810D03*
G01X57149Y60810D03*
G01X54609Y60810D03*
G01X52069Y60810D03*
G01X49529Y60810D03*
G01X46989Y60810D03*
G01X46989Y53190D03*
G01X49529Y53190D03*
G01X52069Y53190D03*
G01X54609Y53190D03*
G01X57149Y53190D03*
G01X59689Y53190D03*
G01X62229Y53190D03*
G01X64769Y53190D03*
G01X67309Y53190D03*
G01X69849Y53190D03*
G01X72389Y53190D03*
G01X74929Y53190D03*
G01X77469Y53190D03*
G01X80009Y53190D03*
G54D22*
G01X3749Y71210D03*
G01X3749Y73750D03*
G01X3749Y76290D03*
G54D15*
G01X100696Y49444D03*
G01X84696Y63360D03*
G01X91926Y78823D03*
G01X59689Y57764D03*
G01X80997Y49056D03*
G01X61003Y25221D03*
G01X29644Y48420D03*
G01X53462Y48420D03*
G01X58050Y48450D03*
G01X73150Y48450D03*
G01X106327Y30764D03*
G01X110817Y31578D03*
G01X77469Y66842D03*
G54D25*
G01X3248Y45011D02*
G01X4748Y45011D01*
G01X3248Y40490D02*
G01X4748Y40490D01*
G01X9751Y45011D02*
G01X11251Y45011D01*
G01X9751Y40490D02*
G01X11251Y40490D01*
G01X14248Y45011D02*
G01X15748Y45011D01*
G01X14248Y40490D02*
G01X15748Y40490D01*
G01X20751Y45011D02*
G01X22251Y45011D01*
G01X20751Y40490D02*
G01X22251Y40490D01*
G01X25248Y45011D02*
G01X26748Y45011D01*
G01X25248Y40490D02*
G01X26748Y40490D01*
G01X31751Y45011D02*
G01X33251Y45011D01*
G01X31751Y40490D02*
G01X33251Y40490D01*
G01X36247Y45011D02*
G01X37747Y45011D01*
G01X36247Y40490D02*
G01X37747Y40490D01*
G01X42749Y45011D02*
G01X44250Y45011D01*
G01X42749Y40490D02*
G01X44250Y40490D01*
G01X47248Y45011D02*
G01X48748Y45011D01*
G01X47248Y40490D02*
G01X48748Y40490D01*
G01X53750Y45011D02*
G01X55250Y45011D01*
G01X53750Y40490D02*
G01X55250Y40490D01*
G01X58248Y45011D02*
G01X59749Y45011D01*
G01X58248Y40490D02*
G01X59749Y40490D01*
G01X64751Y45011D02*
G01X66251Y45011D01*
G01X64751Y40490D02*
G01X66251Y40490D01*
G01X69249Y45011D02*
G01X70749Y45011D01*
G01X69249Y40490D02*
G01X70749Y40490D01*
G01X75752Y45011D02*
G01X77252Y45011D01*
G01X75752Y40490D02*
G01X77252Y40490D01*
G01X80247Y45011D02*
G01X81748Y45011D01*
G01X80247Y40490D02*
G01X81748Y40490D01*
G01X86750Y45011D02*
G01X88250Y45011D01*
G01X86750Y40490D02*
G01X88250Y40490D01*
G01X91248Y45011D02*
G01X92748Y45011D01*
G01X91248Y40490D02*
G01X92748Y40490D01*
G01X97751Y45011D02*
G01X99251Y45011D01*
G01X97751Y40490D02*
G01X99251Y40490D01*
G01X3247Y34010D02*
G01X4747Y34010D01*
G01X3247Y29489D02*
G01X4747Y29489D01*
G01X9750Y34010D02*
G01X11250Y34010D01*
G01X9750Y29489D02*
G01X11250Y29489D01*
G01X102248Y23011D02*
G01X103748Y23011D01*
G01X102248Y18490D02*
G01X103748Y18490D01*
G01X108751Y23011D02*
G01X110251Y23011D01*
G01X108751Y18490D02*
G01X110251Y18490D01*
G01X14248Y34010D02*
G01X15748Y34010D01*
G01X14248Y29489D02*
G01X15748Y29489D01*
G01X20750Y34010D02*
G01X22251Y34010D01*
G01X20750Y29489D02*
G01X22251Y29489D01*
G01X25249Y34010D02*
G01X26749Y34010D01*
G01X25249Y29489D02*
G01X26749Y29489D01*
G01X31751Y34010D02*
G01X33251Y34010D01*
G01X31751Y29489D02*
G01X33251Y29489D01*
G01X36247Y34010D02*
G01X37747Y34010D01*
G01X36247Y29489D02*
G01X37747Y29489D01*
G01X42749Y34010D02*
G01X44250Y34010D01*
G01X42749Y29489D02*
G01X44250Y29489D01*
G01X47248Y34010D02*
G01X48748Y34010D01*
G01X47248Y29489D02*
G01X48748Y29489D01*
G01X53750Y34010D02*
G01X55250Y34010D01*
G01X53750Y29489D02*
G01X55250Y29489D01*
G01X58248Y34010D02*
G01X59749Y34010D01*
G01X58248Y29489D02*
G01X59749Y29489D01*
G01X64751Y34010D02*
G01X66251Y34010D01*
G01X64751Y29489D02*
G01X66251Y29489D01*
G01X69249Y34010D02*
G01X70749Y34010D01*
G01X69249Y29489D02*
G01X70749Y29489D01*
G01X75752Y34010D02*
G01X77252Y34010D01*
G01X75752Y29489D02*
G01X77252Y29489D01*
G01X80247Y34010D02*
G01X81748Y34010D01*
G01X80247Y29489D02*
G01X81748Y29489D01*
G01X86750Y34010D02*
G01X88250Y34010D01*
G01X86750Y29489D02*
G01X88250Y29489D01*
G01X91248Y34010D02*
G01X92748Y34010D01*
G01X91248Y29489D02*
G01X92748Y29489D01*
G01X97751Y34010D02*
G01X99251Y34010D01*
G01X97751Y29489D02*
G01X99251Y29489D01*
G01X102249Y34013D02*
G01X103749Y34013D01*
G01X102249Y29491D02*
G01X103749Y29491D01*
G01X108751Y34013D02*
G01X110251Y34013D01*
G01X108751Y29491D02*
G01X110251Y29491D01*
G01X91248Y23012D02*
G01X92748Y23012D01*
G01X91248Y18491D02*
G01X92748Y18491D01*
G01X97751Y23012D02*
G01X99251Y23012D01*
G01X97751Y18491D02*
G01X99251Y18491D01*
G01X80247Y23012D02*
G01X81748Y23012D01*
G01X80247Y18491D02*
G01X81748Y18491D01*
G01X86750Y23012D02*
G01X88250Y23012D01*
G01X86750Y18491D02*
G01X88250Y18491D01*
G01X69249Y23012D02*
G01X70749Y23012D01*
G01X69249Y18491D02*
G01X70749Y18491D01*
G01X75752Y23012D02*
G01X77252Y23012D01*
G01X75752Y18491D02*
G01X77252Y18491D01*
G01X58248Y23012D02*
G01X59749Y23012D01*
G01X58248Y18491D02*
G01X59749Y18491D01*
G01X64751Y23012D02*
G01X66251Y23012D01*
G01X64751Y18491D02*
G01X66251Y18491D01*
G01X47248Y23012D02*
G01X48748Y23012D01*
G01X47248Y18491D02*
G01X48748Y18491D01*
G01X53750Y23012D02*
G01X55250Y23012D01*
G01X53750Y18491D02*
G01X55250Y18491D01*
G01X36247Y23012D02*
G01X37747Y23012D01*
G01X36247Y18491D02*
G01X37747Y18491D01*
G01X42749Y23012D02*
G01X44250Y23012D01*
G01X42749Y18491D02*
G01X44250Y18491D01*
G01X25249Y23012D02*
G01X26749Y23012D01*
G01X25249Y18491D02*
G01X26749Y18491D01*
G01X31751Y23012D02*
G01X33251Y23012D01*
G01X31751Y18491D02*
G01X33251Y18491D01*
G01X14248Y23012D02*
G01X15748Y23012D01*
G01X14248Y18491D02*
G01X15748Y18491D01*
G01X20750Y23012D02*
G01X22251Y23012D01*
G01X20750Y18491D02*
G01X22251Y18491D01*
G01X3247Y23014D02*
G01X4747Y23014D01*
G01X3247Y18493D02*
G01X4747Y18493D01*
G01X9750Y23014D02*
G01X11250Y23014D01*
G01X9750Y18493D02*
G01X11250Y18493D01*
G01X14248Y12011D02*
G01X15748Y12011D01*
G01X14248Y7490D02*
G01X15748Y7490D01*
G01X20750Y12011D02*
G01X22251Y12011D01*
G01X20750Y7490D02*
G01X22251Y7490D01*
G01X25249Y12011D02*
G01X26749Y12011D01*
G01X25249Y7490D02*
G01X26749Y7490D01*
G01X31751Y12011D02*
G01X33251Y12011D01*
G01X31751Y7490D02*
G01X33251Y7490D01*
G01X36247Y12011D02*
G01X37747Y12011D01*
G01X36247Y7490D02*
G01X37747Y7490D01*
G01X42749Y12011D02*
G01X44250Y12011D01*
G01X42749Y7490D02*
G01X44250Y7490D01*
G01X47248Y12011D02*
G01X48748Y12011D01*
G01X47248Y7490D02*
G01X48748Y7490D01*
G01X53750Y12011D02*
G01X55250Y12011D01*
G01X53750Y7490D02*
G01X55250Y7490D01*
G01X58248Y12011D02*
G01X59749Y12011D01*
G01X58248Y7490D02*
G01X59749Y7490D01*
G01X64751Y12011D02*
G01X66251Y12011D01*
G01X64751Y7490D02*
G01X66251Y7490D01*
G01X69249Y12011D02*
G01X70749Y12011D01*
G01X69249Y7490D02*
G01X70749Y7490D01*
G01X75752Y12011D02*
G01X77252Y12011D01*
G01X75752Y7490D02*
G01X77252Y7490D01*
G01X80247Y12011D02*
G01X81748Y12011D01*
G01X80247Y7490D02*
G01X81748Y7490D01*
G01X86750Y12011D02*
G01X88250Y12011D01*
G01X86750Y7490D02*
G01X88250Y7490D01*
G01X3248Y12011D02*
G01X4748Y12011D01*
G01X3248Y7490D02*
G01X4748Y7490D01*
G01X9751Y12011D02*
G01X11251Y12011D01*
G01X9751Y7490D02*
G01X11251Y7490D01*
G01X91248Y12011D02*
G01X92748Y12011D01*
G01X91248Y7490D02*
G01X92748Y7490D01*
G01X97751Y12011D02*
G01X99251Y12011D01*
G01X97751Y7490D02*
G01X99251Y7490D01*
G01X102248Y12011D02*
G01X103748Y12011D01*
G01X102248Y7490D02*
G01X103748Y7490D01*
G01X108751Y12011D02*
G01X110251Y12011D01*
G01X108751Y7490D02*
G01X110251Y7490D01*
G01X102248Y45011D02*
G01X103748Y45011D01*
G01X102248Y40490D02*
G01X103748Y40490D01*
G01X108751Y45011D02*
G01X110251Y45011D01*
G01X108751Y40490D02*
G01X110251Y40490D01*
M00*
M02*
