G04 Layer: TopLayer*
G04 EasyEDA v6.3.53, 2020-06-23T11:31:42+02:00*
G04 9deb55b867614345ac0c6ea2e1a2c697,50b924b206514efda7368a069ed08794,10*
G04 Gerber Generator version 0.2*
G04 Scale: 100 percent, Rotated: No, Reflected: No *
G04 Dimensions in millimeters *
G04 leading zeros omitted , absolute positions ,3 integer and 3 decimal *
%FSLAX33Y33*%
%MOMM*%
G90*
G71D02*

%ADD12C,0.699999*%
%ADD13C,0.150012*%
%ADD14C,0.152400*%
%ADD15C,0.610006*%
%ADD16C,3.810000*%
%ADD17C,1.524000*%
%ADD18C,1.780007*%
%ADD19C,1.419860*%
%ADD20C,1.651000*%
%ADD21C,2.100580*%
%ADD22C,1.799996*%
%ADD23R,1.799996X1.799996*%
%ADD24R,1.211580X2.181860*%
%ADD25C,1.999996*%

%LPD*%
G54D12*
G01X75962Y65155D02*
G01X75962Y67333D01*
G01X78043Y69413D01*
G01X101458Y69413D01*
G01X103370Y67500D01*
G01X65260Y63444D02*
G01X66971Y65155D01*
G01X75962Y65155D01*
G01X75962Y65155D02*
G01X92723Y65155D01*
G01X95628Y62250D01*
G01X62229Y60810D02*
G01X62229Y62954D01*
G01X64769Y62954D02*
G01X65260Y63444D01*
G01X47459Y68750D02*
G01X51350Y64850D01*
G01X53350Y64850D01*
G01X53350Y62950D01*
G01X62229Y62954D01*
G01X110749Y63980D02*
G01X110162Y64568D01*
G01X95295Y64568D01*
G01X93021Y66842D01*
G01X77469Y66842D01*
G01X73150Y48450D02*
G01X73150Y48450D01*
G01X73150Y48450D01*
G01X73150Y48450D01*
G01X58050Y48450D01*
G01X72389Y51047D02*
G01X76125Y47653D01*
G01X82058Y47653D01*
G01X84249Y45462D01*
G01X84249Y44501D01*
G01X86000Y42750D01*
G01X89738Y42750D01*
G01X91998Y40490D01*
G01X20919Y82211D02*
G01X30112Y73018D01*
G01X56112Y73018D01*
G01X60295Y68835D01*
G01X65260Y63444D01*
G01X84655Y18491D02*
G01X84655Y26644D01*
G01X87500Y29489D01*
G01X109501Y29491D02*
G01X109372Y29362D01*
G01X103129Y29362D01*
G01X102999Y29491D01*
G01X102998Y7490D02*
G01X100944Y5436D01*
G01X12555Y5436D01*
G01X10501Y7490D01*
G01X109501Y7490D02*
G01X102998Y7490D01*
G01X10501Y40490D02*
G01X3998Y40490D01*
G01X10500Y29489D02*
G01X3997Y29489D01*
G01X109501Y40490D02*
G01X102998Y40490D01*
G01X109501Y18490D02*
G01X102998Y18490D01*
G01X10500Y18493D02*
G01X3997Y18493D01*
G01X10501Y7490D02*
G01X3998Y7490D01*
G01X73540Y68750D02*
G01X71745Y66955D01*
G01X64585Y66955D01*
G01X62789Y68750D01*
G01X50040Y68750D02*
G01X57709Y68750D01*
G01X47998Y23012D02*
G01X54500Y23012D01*
G01X36997Y23012D02*
G01X43499Y23012D01*
G01X32501Y23012D02*
G01X36997Y23012D01*
G01X43499Y23012D02*
G01X47998Y23012D01*
G01X25999Y23012D02*
G01X32501Y23012D01*
G01X21501Y23012D02*
G01X25999Y23012D01*
G01X14998Y23012D02*
G01X21501Y23012D01*
G01X10500Y23014D02*
G01X14996Y23014D01*
G01X14998Y23012D01*
G01X3997Y23014D02*
G01X10500Y23014D01*
G01X110749Y71600D02*
G01X101349Y81000D01*
G01X97839Y81000D01*
G01X70959Y68750D02*
G01X78774Y76565D01*
G01X93404Y76565D01*
G01X97839Y81000D01*
G01X106327Y30764D02*
G01X107141Y31578D01*
G01X110817Y31578D01*
G01X102998Y23011D02*
G01X109501Y23011D01*
G01X91998Y23012D02*
G01X98501Y23012D01*
G01X87500Y23012D02*
G01X91998Y23012D01*
G01X98501Y23012D02*
G01X102997Y23012D01*
G01X102998Y23011D01*
G01X69999Y23012D02*
G01X76502Y23012D01*
G01X65501Y23012D02*
G01X69999Y23012D01*
G01X76502Y23012D02*
G01X80997Y23012D01*
G01X58999Y23012D02*
G01X65501Y23012D01*
G01X21501Y7490D02*
G01X23631Y9621D01*
G01X89867Y9621D01*
G01X91998Y7490D01*
G01X21501Y7490D02*
G01X14998Y7490D01*
G01X21501Y40490D02*
G01X14998Y40490D01*
G01X72389Y53190D02*
G01X72389Y51047D01*
G01X21501Y29489D02*
G01X14998Y29489D01*
G01X98501Y29489D02*
G01X91998Y29489D01*
G01X98501Y18491D02*
G01X91998Y18491D01*
G01X21501Y18491D02*
G01X14998Y18491D01*
G01X98501Y7490D02*
G01X91998Y7490D01*
G01X53462Y48420D02*
G01X29644Y48420D01*
G01X69999Y40490D02*
G01X67867Y38357D01*
G01X45632Y38357D01*
G01X43499Y40490D01*
G01X43499Y40490D02*
G01X36997Y40490D01*
G01X69999Y29489D02*
G01X67868Y31620D01*
G01X45630Y31620D01*
G01X43499Y29489D01*
G01X76502Y29489D02*
G01X69999Y29489D01*
G01X43499Y29489D02*
G01X36997Y29489D01*
G01X76502Y18491D02*
G01X69999Y18491D01*
G01X43499Y18491D02*
G01X36997Y18491D01*
G01X43499Y7490D02*
G01X36997Y7490D01*
G01X76502Y7490D02*
G01X69999Y7490D01*
G01X54500Y40490D02*
G01X47998Y40490D01*
G01X58999Y40490D02*
G01X54500Y40490D01*
G01X65501Y40490D02*
G01X58999Y40490D01*
G01X54500Y29489D02*
G01X47998Y29489D01*
G01X58999Y29489D02*
G01X54500Y29489D01*
G01X65501Y29489D02*
G01X61233Y25221D01*
G01X61003Y25221D01*
G01X65501Y18491D02*
G01X58999Y18491D01*
G01X47998Y18491D02*
G01X54500Y18491D01*
G01X54500Y18491D02*
G01X58999Y18491D01*
G01X54500Y7490D02*
G01X47998Y7490D01*
G01X58999Y7490D02*
G01X54500Y7490D01*
G01X65501Y7490D02*
G01X58999Y7490D01*
G01X58999Y45011D02*
G01X52962Y51047D01*
G01X46989Y51047D01*
G01X46989Y53190D02*
G01X46989Y51047D01*
G01X65501Y45011D02*
G01X58999Y45011D01*
G01X69999Y45011D02*
G01X65501Y45011D01*
G01X76502Y45011D02*
G01X69999Y45011D01*
G01X80997Y45011D02*
G01X76502Y45011D01*
G01X87500Y45011D02*
G01X83454Y49056D01*
G01X80997Y49056D01*
G01X91998Y45011D02*
G01X87500Y45011D01*
G01X102998Y45011D02*
G01X98501Y45011D01*
G01X98501Y45011D01*
G01X109501Y45011D02*
G01X102998Y45011D01*
G01X94843Y34010D02*
G01X91998Y34010D01*
G01X98501Y34010D02*
G01X94843Y34010D01*
G01X94843Y34010D02*
G01X94843Y49781D01*
G01X87564Y57059D01*
G01X68917Y57059D01*
G01X67309Y58667D01*
G01X67309Y60810D02*
G01X67309Y58667D01*
G01X65501Y34010D02*
G01X58999Y34010D01*
G01X69999Y34010D02*
G01X65501Y34010D01*
G01X76502Y34010D02*
G01X69999Y34010D01*
G01X80997Y34010D02*
G01X76502Y34010D01*
G01X87500Y34010D02*
G01X80997Y34010D01*
G01X91998Y34010D02*
G01X87500Y34010D01*
G01X102999Y34013D02*
G01X98503Y34013D01*
G01X98501Y34010D01*
G01X109501Y34013D02*
G01X102999Y34013D01*
G01X110749Y58900D02*
G01X108797Y58900D01*
G01X103209Y52750D02*
G01X108797Y58338D01*
G01X108797Y58900D01*
G01X110749Y66520D02*
G01X104370Y66500D01*
G01X103370Y67500D01*
G01X20919Y82211D02*
G01X20919Y82750D01*
G01X64769Y60810D02*
G01X64769Y62954D01*
G01X64769Y59739D02*
G01X64769Y60810D01*
G01X64769Y59739D02*
G01X64769Y58667D01*
G01X64769Y58667D02*
G01X63866Y57764D01*
G01X59689Y57764D01*
G01X32501Y40490D02*
G01X34648Y42637D01*
G01X78850Y42637D01*
G01X80997Y40490D01*
G01X32501Y40490D02*
G01X25998Y40490D01*
G01X87500Y40490D02*
G01X80997Y40490D01*
G01X32501Y29489D02*
G01X25999Y29489D01*
G01X87500Y29489D02*
G01X80997Y29489D01*
G01X84655Y18491D02*
G01X80997Y18491D01*
G01X87500Y18491D02*
G01X84655Y18491D01*
G01X32501Y18491D02*
G01X25999Y18491D01*
G01X32501Y7490D02*
G01X25999Y7490D01*
G01X87500Y7490D02*
G01X80997Y7490D01*
G01X10501Y45011D02*
G01X3998Y45011D01*
G01X14998Y45011D02*
G01X10501Y45011D01*
G01X21501Y45011D02*
G01X14998Y45011D01*
G01X25998Y45011D02*
G01X21501Y45011D01*
G01X34458Y45011D02*
G01X25998Y45011D01*
G01X25998Y45011D01*
G01X34458Y45011D02*
G01X32501Y45011D01*
G01X32501Y45011D01*
G01X36997Y45011D02*
G01X34458Y45011D01*
G01X43499Y45011D02*
G01X36997Y45011D01*
G01X47998Y45011D02*
G01X43499Y45011D01*
G01X54500Y45011D02*
G01X47998Y45011D01*
G01X21501Y12011D02*
G01X14998Y12011D01*
G01X25999Y12011D02*
G01X21501Y12011D01*
G01X32501Y12011D02*
G01X25999Y12011D01*
G01X36997Y12011D02*
G01X32501Y12011D01*
G01X43499Y12011D02*
G01X36997Y12011D01*
G01X47998Y12011D02*
G01X43499Y12011D01*
G01X54500Y12011D02*
G01X47998Y12011D01*
G01X3998Y12011D02*
G01X10501Y12011D01*
G01X10501Y12011D02*
G01X14998Y12011D01*
G01X10500Y34010D02*
G01X3997Y34010D01*
G01X14998Y34010D02*
G01X10500Y34010D01*
G01X21501Y34010D02*
G01X14998Y34010D01*
G01X25999Y34010D02*
G01X21501Y34010D01*
G01X32501Y34010D02*
G01X25999Y34010D01*
G01X36997Y34010D02*
G01X32501Y34010D01*
G01X43499Y34010D02*
G01X36997Y34010D01*
G01X47998Y34010D02*
G01X43499Y34010D01*
G01X54500Y34010D02*
G01X47998Y34010D01*
G01X28539Y82750D02*
G01X28539Y82566D01*
G01X32282Y78823D01*
G01X91926Y78823D01*
G01X72389Y62954D02*
G01X72796Y63360D01*
G01X84696Y63360D01*
G01X72389Y60810D02*
G01X72389Y62954D01*
G01X109501Y12011D02*
G01X112343Y14853D01*
G01X112343Y45959D01*
G01X108857Y49444D01*
G01X100696Y49444D01*
G01X102998Y12011D02*
G01X109501Y12011D01*
G01X65501Y12011D02*
G01X58999Y12011D01*
G01X69999Y12011D02*
G01X65501Y12011D01*
G01X76502Y12011D02*
G01X69999Y12011D01*
G01X80997Y12011D02*
G01X76502Y12011D01*
G01X87500Y12011D02*
G01X80997Y12011D01*
G01X91998Y12011D02*
G01X87500Y12011D01*
G01X98501Y12011D02*
G01X91998Y12011D01*
G01X102998Y12011D02*
G01X98501Y12011D01*
G01X3750Y73750D02*
G01X1999Y74250D01*
G01X1499Y75500D01*
G01X1499Y77750D01*
G01X6602Y80459D01*
G01X15053Y80459D01*
G01X16481Y81881D01*
G01X16481Y83888D01*
G01X17447Y84853D01*
G01X50797Y84853D01*
G01X54658Y80992D01*
G01X57149Y53190D02*
G01X57149Y55334D01*
G01X57149Y55334D02*
G01X86795Y55334D01*
G01X89378Y52750D01*
G01X74929Y60810D02*
G01X74929Y58667D01*
G01X74929Y58667D02*
G01X102947Y58667D01*
G01X105720Y61440D01*
G01X110749Y61440D01*
G01X18410Y82710D02*
G01X24349Y69150D01*
G01X47459Y68750D01*
G54D13*
G01X90248Y63911D02*
G01X90248Y62814D01*
G01X90594Y63230D02*
G01X91221Y63230D01*
G01X91221Y63337D01*
G01X91170Y63441D01*
G01X91117Y63492D01*
G01X91013Y63545D01*
G01X90855Y63545D01*
G01X90751Y63492D01*
G01X90647Y63388D01*
G01X90594Y63230D01*
G01X90594Y63126D01*
G01X90647Y62971D01*
G01X90751Y62864D01*
G01X90855Y62814D01*
G01X91013Y62814D01*
G01X91117Y62864D01*
G01X91221Y62971D01*
G01X92194Y63911D02*
G01X92194Y62814D01*
G01X92194Y63388D02*
G01X92090Y63492D01*
G01X91986Y63545D01*
G01X91828Y63545D01*
G01X91724Y63492D01*
G01X91620Y63388D01*
G01X91566Y63230D01*
G01X91566Y63126D01*
G01X91620Y62971D01*
G01X91724Y62864D01*
G01X91828Y62814D01*
G01X91986Y62814D01*
G01X92090Y62864D01*
G01X92194Y62971D01*
G54D14*
G01X57529Y74895D02*
G01X57476Y74999D01*
G01X57372Y75103D01*
G01X57270Y75154D01*
G01X57062Y75154D01*
G01X56958Y75103D01*
G01X56854Y74999D01*
G01X56800Y74895D01*
G01X56749Y74737D01*
G01X56749Y74478D01*
G01X56800Y74323D01*
G01X56854Y74219D01*
G01X56958Y74115D01*
G01X57062Y74064D01*
G01X57270Y74064D01*
G01X57372Y74115D01*
G01X57476Y74219D01*
G01X57529Y74323D01*
G01X57872Y75154D02*
G01X57872Y74064D01*
G01X57872Y75154D02*
G01X58339Y75154D01*
G01X58494Y75103D01*
G01X58548Y75049D01*
G01X58598Y74945D01*
G01X58598Y74841D01*
G01X58548Y74737D01*
G01X58494Y74686D01*
G01X58339Y74635D01*
G01X57872Y74635D01*
G01X58235Y74635D02*
G01X58598Y74064D01*
G01X58941Y75154D02*
G01X59358Y74635D01*
G01X59358Y74064D01*
G01X59772Y75154D02*
G01X59358Y74635D01*
G01X60844Y74999D02*
G01X60740Y75103D01*
G01X60585Y75154D01*
G01X60376Y75154D01*
G01X60219Y75103D01*
G01X60115Y74999D01*
G01X60115Y74895D01*
G01X60168Y74790D01*
G01X60219Y74737D01*
G01X60323Y74686D01*
G01X60636Y74582D01*
G01X60740Y74531D01*
G01X60791Y74478D01*
G01X60844Y74374D01*
G01X60844Y74219D01*
G01X60740Y74115D01*
G01X60585Y74064D01*
G01X60376Y74064D01*
G01X60219Y74115D01*
G01X60115Y74219D01*
G01X61550Y75154D02*
G01X61550Y74064D01*
G01X61187Y75154D02*
G01X61913Y75154D01*
G01X62673Y75154D02*
G01X62256Y74064D01*
G01X62673Y75154D02*
G01X63087Y74064D01*
G01X62414Y74427D02*
G01X62932Y74427D01*
G01X63430Y75154D02*
G01X63430Y74064D01*
G01X63430Y74064D02*
G01X64054Y74064D01*
G01X64397Y74945D02*
G01X64501Y74999D01*
G01X64656Y75154D01*
G01X64656Y74064D01*
G01X110596Y74250D02*
G01X111686Y74250D01*
G01X110596Y74250D02*
G01X110596Y74718D01*
G01X110647Y74873D01*
G01X110700Y74926D01*
G01X110804Y74977D01*
G01X110959Y74977D01*
G01X111063Y74926D01*
G01X111114Y74873D01*
G01X111167Y74718D01*
G01X111167Y74250D01*
G01X110804Y75320D02*
G01X110751Y75424D01*
G01X110596Y75581D01*
G01X111686Y75581D01*
G01X89999Y60654D02*
G01X89999Y59564D01*
G01X89999Y59564D02*
G01X90622Y59564D01*
G01X90965Y60654D02*
G01X90965Y59564D01*
G01X90965Y60654D02*
G01X91640Y60654D01*
G01X90965Y60135D02*
G01X91381Y60135D01*
G01X90965Y59564D02*
G01X91640Y59564D01*
G01X91983Y60654D02*
G01X91983Y59564D01*
G01X91983Y60654D02*
G01X92349Y60654D01*
G01X92504Y60603D01*
G01X92608Y60499D01*
G01X92659Y60395D01*
G01X92712Y60237D01*
G01X92712Y59978D01*
G01X92659Y59823D01*
G01X92608Y59719D01*
G01X92504Y59615D01*
G01X92349Y59564D01*
G01X91983Y59564D01*
G01X93055Y60445D02*
G01X93159Y60499D01*
G01X93314Y60654D01*
G01X93314Y59564D01*
G01X108999Y53695D02*
G01X109103Y53749D01*
G01X109258Y53904D01*
G01X109258Y52814D01*
G01X109913Y53904D02*
G01X109758Y53853D01*
G01X109654Y53695D01*
G01X109601Y53436D01*
G01X109601Y53281D01*
G01X109654Y53020D01*
G01X109758Y52865D01*
G01X109913Y52814D01*
G01X110018Y52814D01*
G01X110172Y52865D01*
G01X110277Y53020D01*
G01X110330Y53281D01*
G01X110330Y53436D01*
G01X110277Y53695D01*
G01X110172Y53853D01*
G01X110018Y53904D01*
G01X109913Y53904D01*
G01X111191Y53904D02*
G01X110673Y53177D01*
G01X111450Y53177D01*
G01X111191Y53904D02*
G01X111191Y52814D01*
G01X111793Y53904D02*
G01X111793Y52814D01*
G01X111793Y53904D02*
G01X112522Y52814D01*
G01X112522Y53904D02*
G01X112522Y52814D01*
G01X112865Y53904D02*
G01X112865Y52814D01*
G01X112865Y53904D02*
G01X113540Y53904D01*
G01X112865Y53386D02*
G01X113279Y53386D01*
G01X7251Y73227D02*
G01X7147Y73123D01*
G01X7096Y72968D01*
G01X7096Y72759D01*
G01X7147Y72605D01*
G01X7251Y72500D01*
G01X7355Y72500D01*
G01X7459Y72551D01*
G01X7513Y72605D01*
G01X7564Y72709D01*
G01X7668Y73021D01*
G01X7718Y73123D01*
G01X7772Y73176D01*
G01X7876Y73227D01*
G01X8031Y73227D01*
G01X8135Y73123D01*
G01X8186Y72968D01*
G01X8186Y72759D01*
G01X8135Y72605D01*
G01X8031Y72500D01*
G01X7096Y73570D02*
G01X8186Y73831D01*
G01X7096Y74090D02*
G01X8186Y73831D01*
G01X7096Y74090D02*
G01X8186Y74350D01*
G01X7096Y74609D02*
G01X8186Y74350D01*
G01X7355Y75005D02*
G01X7304Y75005D01*
G01X7200Y75056D01*
G01X7147Y75109D01*
G01X7096Y75213D01*
G01X7096Y75421D01*
G01X7147Y75523D01*
G01X7200Y75576D01*
G01X7304Y75627D01*
G01X7409Y75627D01*
G01X7513Y75576D01*
G01X7668Y75472D01*
G01X8186Y74952D01*
G01X8186Y75680D01*
G54D16*
G01X4749Y83250D03*
G01X108749Y83250D03*
G01X4749Y3250D03*
G01X108749Y3250D03*
G54D17*
G01X2649Y65650D03*
G01X5949Y66450D03*
G01X21250Y52000D03*
G01X23749Y50501D03*
G01X4500Y50750D03*
G01X3850Y52950D03*
G01X26999Y51000D03*
G01X100999Y77000D03*
G01X99499Y74750D03*
G01X105499Y73750D03*
G01X110749Y77250D03*
G54D18*
G01X18410Y82710D03*
G01X20950Y82710D03*
G01X23490Y82710D03*
G01X26030Y82710D03*
G01X28570Y82710D03*
G01X31110Y82710D03*
G01X33650Y82710D03*
G54D19*
G01X89378Y52750D03*
G01X97120Y52750D03*
G54D20*
G01X57709Y68750D03*
G01X62789Y68750D03*
G54D19*
G01X95628Y67500D03*
G01X103370Y67500D03*
G01X95628Y62250D03*
G01X103370Y62250D03*
G54D21*
G01X62279Y81000D03*
G01X54659Y81000D03*
G01X90219Y81000D03*
G01X97839Y81000D03*
G54D22*
G01X110749Y71600D03*
G01X110749Y69060D03*
G01X110749Y66520D03*
G01X110749Y63980D03*
G01X110749Y61440D03*
G54D23*
G01X110749Y58900D03*
G54D20*
G01X87249Y63270D03*
G01X87249Y60730D03*
G54D19*
G01X70959Y68750D03*
G01X73540Y68750D03*
G01X47459Y68750D03*
G01X50040Y68750D03*
G01X103209Y52750D03*
G01X105790Y52750D03*
G54D24*
G01X80009Y60810D03*
G01X77469Y60810D03*
G01X64769Y60810D03*
G01X62229Y60810D03*
G01X74929Y60810D03*
G01X72389Y60810D03*
G01X67309Y60810D03*
G01X69849Y60810D03*
G01X59689Y60810D03*
G01X57149Y60810D03*
G01X54609Y60810D03*
G01X52069Y60810D03*
G01X49529Y60810D03*
G01X46989Y60810D03*
G01X46989Y53190D03*
G01X49529Y53190D03*
G01X52069Y53190D03*
G01X54609Y53190D03*
G01X57149Y53190D03*
G01X59689Y53190D03*
G01X62229Y53190D03*
G01X64769Y53190D03*
G01X67309Y53190D03*
G01X69849Y53190D03*
G01X72389Y53190D03*
G01X74929Y53190D03*
G01X77469Y53190D03*
G01X80009Y53190D03*
G54D22*
G01X3749Y71210D03*
G01X3749Y73750D03*
G01X3749Y76290D03*
G54D15*
G01X100696Y49444D03*
G01X84696Y63360D03*
G01X91926Y78823D03*
G01X59689Y57764D03*
G01X80997Y49056D03*
G01X61003Y25221D03*
G01X29644Y48420D03*
G01X53462Y48420D03*
G01X58050Y48450D03*
G01X73150Y48450D03*
G01X106327Y30764D03*
G01X110817Y31578D03*
G01X77469Y66842D03*
G54D25*
G01X3248Y45011D02*
G01X4748Y45011D01*
G01X3248Y40490D02*
G01X4748Y40490D01*
G01X9751Y45011D02*
G01X11251Y45011D01*
G01X9751Y40490D02*
G01X11251Y40490D01*
G01X14248Y45011D02*
G01X15748Y45011D01*
G01X14248Y40490D02*
G01X15748Y40490D01*
G01X20751Y45011D02*
G01X22251Y45011D01*
G01X20751Y40490D02*
G01X22251Y40490D01*
G01X25248Y45011D02*
G01X26748Y45011D01*
G01X25248Y40490D02*
G01X26748Y40490D01*
G01X31751Y45011D02*
G01X33251Y45011D01*
G01X31751Y40490D02*
G01X33251Y40490D01*
G01X36247Y45011D02*
G01X37747Y45011D01*
G01X36247Y40490D02*
G01X37747Y40490D01*
G01X42749Y45011D02*
G01X44250Y45011D01*
G01X42749Y40490D02*
G01X44250Y40490D01*
G01X47248Y45011D02*
G01X48748Y45011D01*
G01X47248Y40490D02*
G01X48748Y40490D01*
G01X53750Y45011D02*
G01X55250Y45011D01*
G01X53750Y40490D02*
G01X55250Y40490D01*
G01X58248Y45011D02*
G01X59749Y45011D01*
G01X58248Y40490D02*
G01X59749Y40490D01*
G01X64751Y45011D02*
G01X66251Y45011D01*
G01X64751Y40490D02*
G01X66251Y40490D01*
G01X69249Y45011D02*
G01X70749Y45011D01*
G01X69249Y40490D02*
G01X70749Y40490D01*
G01X75752Y45011D02*
G01X77252Y45011D01*
G01X75752Y40490D02*
G01X77252Y40490D01*
G01X80247Y45011D02*
G01X81748Y45011D01*
G01X80247Y40490D02*
G01X81748Y40490D01*
G01X86750Y45011D02*
G01X88250Y45011D01*
G01X86750Y40490D02*
G01X88250Y40490D01*
G01X91248Y45011D02*
G01X92748Y45011D01*
G01X91248Y40490D02*
G01X92748Y40490D01*
G01X97751Y45011D02*
G01X99251Y45011D01*
G01X97751Y40490D02*
G01X99251Y40490D01*
G01X3247Y34010D02*
G01X4747Y34010D01*
G01X3247Y29489D02*
G01X4747Y29489D01*
G01X9750Y34010D02*
G01X11250Y34010D01*
G01X9750Y29489D02*
G01X11250Y29489D01*
G01X102248Y23011D02*
G01X103748Y23011D01*
G01X102248Y18490D02*
G01X103748Y18490D01*
G01X108751Y23011D02*
G01X110251Y23011D01*
G01X108751Y18490D02*
G01X110251Y18490D01*
G01X14248Y34010D02*
G01X15748Y34010D01*
G01X14248Y29489D02*
G01X15748Y29489D01*
G01X20750Y34010D02*
G01X22251Y34010D01*
G01X20750Y29489D02*
G01X22251Y29489D01*
G01X25249Y34010D02*
G01X26749Y34010D01*
G01X25249Y29489D02*
G01X26749Y29489D01*
G01X31751Y34010D02*
G01X33251Y34010D01*
G01X31751Y29489D02*
G01X33251Y29489D01*
G01X36247Y34010D02*
G01X37747Y34010D01*
G01X36247Y29489D02*
G01X37747Y29489D01*
G01X42749Y34010D02*
G01X44250Y34010D01*
G01X42749Y29489D02*
G01X44250Y29489D01*
G01X47248Y34010D02*
G01X48748Y34010D01*
G01X47248Y29489D02*
G01X48748Y29489D01*
G01X53750Y34010D02*
G01X55250Y34010D01*
G01X53750Y29489D02*
G01X55250Y29489D01*
G01X58248Y34010D02*
G01X59749Y34010D01*
G01X58248Y29489D02*
G01X59749Y29489D01*
G01X64751Y34010D02*
G01X66251Y34010D01*
G01X64751Y29489D02*
G01X66251Y29489D01*
G01X69249Y34010D02*
G01X70749Y34010D01*
G01X69249Y29489D02*
G01X70749Y29489D01*
G01X75752Y34010D02*
G01X77252Y34010D01*
G01X75752Y29489D02*
G01X77252Y29489D01*
G01X80247Y34010D02*
G01X81748Y34010D01*
G01X80247Y29489D02*
G01X81748Y29489D01*
G01X86750Y34010D02*
G01X88250Y34010D01*
G01X86750Y29489D02*
G01X88250Y29489D01*
G01X91248Y34010D02*
G01X92748Y34010D01*
G01X91248Y29489D02*
G01X92748Y29489D01*
G01X97751Y34010D02*
G01X99251Y34010D01*
G01X97751Y29489D02*
G01X99251Y29489D01*
G01X102249Y34013D02*
G01X103749Y34013D01*
G01X102249Y29491D02*
G01X103749Y29491D01*
G01X108751Y34013D02*
G01X110251Y34013D01*
G01X108751Y29491D02*
G01X110251Y29491D01*
G01X91248Y23012D02*
G01X92748Y23012D01*
G01X91248Y18491D02*
G01X92748Y18491D01*
G01X97751Y23012D02*
G01X99251Y23012D01*
G01X97751Y18491D02*
G01X99251Y18491D01*
G01X80247Y23012D02*
G01X81748Y23012D01*
G01X80247Y18491D02*
G01X81748Y18491D01*
G01X86750Y23012D02*
G01X88250Y23012D01*
G01X86750Y18491D02*
G01X88250Y18491D01*
G01X69249Y23012D02*
G01X70749Y23012D01*
G01X69249Y18491D02*
G01X70749Y18491D01*
G01X75752Y23012D02*
G01X77252Y23012D01*
G01X75752Y18491D02*
G01X77252Y18491D01*
G01X58248Y23012D02*
G01X59749Y23012D01*
G01X58248Y18491D02*
G01X59749Y18491D01*
G01X64751Y23012D02*
G01X66251Y23012D01*
G01X64751Y18491D02*
G01X66251Y18491D01*
G01X47248Y23012D02*
G01X48748Y23012D01*
G01X47248Y18491D02*
G01X48748Y18491D01*
G01X53750Y23012D02*
G01X55250Y23012D01*
G01X53750Y18491D02*
G01X55250Y18491D01*
G01X36247Y23012D02*
G01X37747Y23012D01*
G01X36247Y18491D02*
G01X37747Y18491D01*
G01X42749Y23012D02*
G01X44250Y23012D01*
G01X42749Y18491D02*
G01X44250Y18491D01*
G01X25249Y23012D02*
G01X26749Y23012D01*
G01X25249Y18491D02*
G01X26749Y18491D01*
G01X31751Y23012D02*
G01X33251Y23012D01*
G01X31751Y18491D02*
G01X33251Y18491D01*
G01X14248Y23012D02*
G01X15748Y23012D01*
G01X14248Y18491D02*
G01X15748Y18491D01*
G01X20750Y23012D02*
G01X22251Y23012D01*
G01X20750Y18491D02*
G01X22251Y18491D01*
G01X3247Y23014D02*
G01X4747Y23014D01*
G01X3247Y18493D02*
G01X4747Y18493D01*
G01X9750Y23014D02*
G01X11250Y23014D01*
G01X9750Y18493D02*
G01X11250Y18493D01*
G01X14248Y12011D02*
G01X15748Y12011D01*
G01X14248Y7490D02*
G01X15748Y7490D01*
G01X20750Y12011D02*
G01X22251Y12011D01*
G01X20750Y7490D02*
G01X22251Y7490D01*
G01X25249Y12011D02*
G01X26749Y12011D01*
G01X25249Y7490D02*
G01X26749Y7490D01*
G01X31751Y12011D02*
G01X33251Y12011D01*
G01X31751Y7490D02*
G01X33251Y7490D01*
G01X36247Y12011D02*
G01X37747Y12011D01*
G01X36247Y7490D02*
G01X37747Y7490D01*
G01X42749Y12011D02*
G01X44250Y12011D01*
G01X42749Y7490D02*
G01X44250Y7490D01*
G01X47248Y12011D02*
G01X48748Y12011D01*
G01X47248Y7490D02*
G01X48748Y7490D01*
G01X53750Y12011D02*
G01X55250Y12011D01*
G01X53750Y7490D02*
G01X55250Y7490D01*
G01X58248Y12011D02*
G01X59749Y12011D01*
G01X58248Y7490D02*
G01X59749Y7490D01*
G01X64751Y12011D02*
G01X66251Y12011D01*
G01X64751Y7490D02*
G01X66251Y7490D01*
G01X69249Y12011D02*
G01X70749Y12011D01*
G01X69249Y7490D02*
G01X70749Y7490D01*
G01X75752Y12011D02*
G01X77252Y12011D01*
G01X75752Y7490D02*
G01X77252Y7490D01*
G01X80247Y12011D02*
G01X81748Y12011D01*
G01X80247Y7490D02*
G01X81748Y7490D01*
G01X86750Y12011D02*
G01X88250Y12011D01*
G01X86750Y7490D02*
G01X88250Y7490D01*
G01X3248Y12011D02*
G01X4748Y12011D01*
G01X3248Y7490D02*
G01X4748Y7490D01*
G01X9751Y12011D02*
G01X11251Y12011D01*
G01X9751Y7490D02*
G01X11251Y7490D01*
G01X91248Y12011D02*
G01X92748Y12011D01*
G01X91248Y7490D02*
G01X92748Y7490D01*
G01X97751Y12011D02*
G01X99251Y12011D01*
G01X97751Y7490D02*
G01X99251Y7490D01*
G01X102248Y12011D02*
G01X103748Y12011D01*
G01X102248Y7490D02*
G01X103748Y7490D01*
G01X108751Y12011D02*
G01X110251Y12011D01*
G01X108751Y7490D02*
G01X110251Y7490D01*
G01X102248Y45011D02*
G01X103748Y45011D01*
G01X102248Y40490D02*
G01X103748Y40490D01*
G01X108751Y45011D02*
G01X110251Y45011D01*
G01X108751Y40490D02*
G01X110251Y40490D01*
M00*
M02*
