G04 Layer: BottomSolderMaskLayer*
G04 EasyEDA v6.3.53, 2020-06-23T11:31:42+02:00*
G04 9deb55b867614345ac0c6ea2e1a2c697,50b924b206514efda7368a069ed08794,10*
G04 Gerber Generator version 0.2*
G04 Scale: 100 percent, Rotated: No, Reflected: No *
G04 Dimensions in millimeters *
G04 leading zeros omitted , absolute positions ,3 integer and 3 decimal *
%FSLAX33Y33*%
%MOMM*%
G90*
G71D02*

%ADD38C,2.203196*%
%ADD39C,4.013200*%
%ADD40C,1.727200*%
%ADD41C,1.983207*%
%ADD42C,1.623060*%
%ADD43C,1.854200*%
%ADD44C,2.303780*%
%ADD45C,2.003196*%

%LPD*%
G54D38*
G01X3248Y45011D02*
G01X4748Y45011D01*
G01X3248Y40490D02*
G01X4748Y40490D01*
G01X9751Y45011D02*
G01X11251Y45011D01*
G01X9751Y40490D02*
G01X11251Y40490D01*
G01X14248Y45011D02*
G01X15748Y45011D01*
G01X14248Y40490D02*
G01X15748Y40490D01*
G01X20751Y45011D02*
G01X22251Y45011D01*
G01X20751Y40490D02*
G01X22251Y40490D01*
G01X25248Y45011D02*
G01X26748Y45011D01*
G01X25248Y40490D02*
G01X26748Y40490D01*
G01X31751Y45011D02*
G01X33251Y45011D01*
G01X31751Y40490D02*
G01X33251Y40490D01*
G01X36247Y45011D02*
G01X37747Y45011D01*
G01X36247Y40490D02*
G01X37747Y40490D01*
G01X42749Y45011D02*
G01X44250Y45011D01*
G01X42749Y40490D02*
G01X44250Y40490D01*
G01X47248Y45011D02*
G01X48748Y45011D01*
G01X47248Y40490D02*
G01X48748Y40490D01*
G01X53750Y45011D02*
G01X55250Y45011D01*
G01X53750Y40490D02*
G01X55250Y40490D01*
G01X58248Y45011D02*
G01X59749Y45011D01*
G01X58248Y40490D02*
G01X59749Y40490D01*
G01X64751Y45011D02*
G01X66251Y45011D01*
G01X64751Y40490D02*
G01X66251Y40490D01*
G01X69249Y45011D02*
G01X70749Y45011D01*
G01X69249Y40490D02*
G01X70749Y40490D01*
G01X75752Y45011D02*
G01X77252Y45011D01*
G01X75752Y40490D02*
G01X77252Y40490D01*
G01X80247Y45011D02*
G01X81748Y45011D01*
G01X80247Y40490D02*
G01X81748Y40490D01*
G01X86750Y45011D02*
G01X88250Y45011D01*
G01X86750Y40490D02*
G01X88250Y40490D01*
G01X91248Y45011D02*
G01X92748Y45011D01*
G01X91248Y40490D02*
G01X92748Y40490D01*
G01X97751Y45011D02*
G01X99251Y45011D01*
G01X97751Y40490D02*
G01X99251Y40490D01*
G01X3247Y34010D02*
G01X4747Y34010D01*
G01X3247Y29489D02*
G01X4747Y29489D01*
G01X9750Y34010D02*
G01X11250Y34010D01*
G01X9750Y29489D02*
G01X11250Y29489D01*
G01X102248Y23011D02*
G01X103748Y23011D01*
G01X102248Y18490D02*
G01X103748Y18490D01*
G01X108751Y23011D02*
G01X110251Y23011D01*
G01X108751Y18490D02*
G01X110251Y18490D01*
G01X14248Y34010D02*
G01X15748Y34010D01*
G01X14248Y29489D02*
G01X15748Y29489D01*
G01X20750Y34010D02*
G01X22251Y34010D01*
G01X20750Y29489D02*
G01X22251Y29489D01*
G01X25249Y34010D02*
G01X26749Y34010D01*
G01X25249Y29489D02*
G01X26749Y29489D01*
G01X31751Y34010D02*
G01X33251Y34010D01*
G01X31751Y29489D02*
G01X33251Y29489D01*
G01X36247Y34010D02*
G01X37747Y34010D01*
G01X36247Y29489D02*
G01X37747Y29489D01*
G01X42749Y34010D02*
G01X44250Y34010D01*
G01X42749Y29489D02*
G01X44250Y29489D01*
G01X47248Y34010D02*
G01X48748Y34010D01*
G01X47248Y29489D02*
G01X48748Y29489D01*
G01X53750Y34010D02*
G01X55250Y34010D01*
G01X53750Y29489D02*
G01X55250Y29489D01*
G01X58248Y34010D02*
G01X59749Y34010D01*
G01X58248Y29489D02*
G01X59749Y29489D01*
G01X64751Y34010D02*
G01X66251Y34010D01*
G01X64751Y29489D02*
G01X66251Y29489D01*
G01X69249Y34010D02*
G01X70749Y34010D01*
G01X69249Y29489D02*
G01X70749Y29489D01*
G01X75752Y34010D02*
G01X77252Y34010D01*
G01X75752Y29489D02*
G01X77252Y29489D01*
G01X80247Y34010D02*
G01X81748Y34010D01*
G01X80247Y29489D02*
G01X81748Y29489D01*
G01X86750Y34010D02*
G01X88250Y34010D01*
G01X86750Y29489D02*
G01X88250Y29489D01*
G01X91248Y34010D02*
G01X92748Y34010D01*
G01X91248Y29489D02*
G01X92748Y29489D01*
G01X97751Y34010D02*
G01X99251Y34010D01*
G01X97751Y29489D02*
G01X99251Y29489D01*
G01X102249Y34013D02*
G01X103749Y34013D01*
G01X102249Y29491D02*
G01X103749Y29491D01*
G01X108751Y34013D02*
G01X110251Y34013D01*
G01X108751Y29491D02*
G01X110251Y29491D01*
G01X91248Y23012D02*
G01X92748Y23012D01*
G01X91248Y18491D02*
G01X92748Y18491D01*
G01X97751Y23012D02*
G01X99251Y23012D01*
G01X97751Y18491D02*
G01X99251Y18491D01*
G01X80247Y23012D02*
G01X81748Y23012D01*
G01X80247Y18491D02*
G01X81748Y18491D01*
G01X86750Y23012D02*
G01X88250Y23012D01*
G01X86750Y18491D02*
G01X88250Y18491D01*
G01X69249Y23012D02*
G01X70749Y23012D01*
G01X69249Y18491D02*
G01X70749Y18491D01*
G01X75752Y23012D02*
G01X77252Y23012D01*
G01X75752Y18491D02*
G01X77252Y18491D01*
G01X58248Y23012D02*
G01X59749Y23012D01*
G01X58248Y18491D02*
G01X59749Y18491D01*
G01X64751Y23012D02*
G01X66251Y23012D01*
G01X64751Y18491D02*
G01X66251Y18491D01*
G01X47248Y23012D02*
G01X48748Y23012D01*
G01X47248Y18491D02*
G01X48748Y18491D01*
G01X53750Y23012D02*
G01X55250Y23012D01*
G01X53750Y18491D02*
G01X55250Y18491D01*
G01X36247Y23012D02*
G01X37747Y23012D01*
G01X36247Y18491D02*
G01X37747Y18491D01*
G01X42749Y23012D02*
G01X44250Y23012D01*
G01X42749Y18491D02*
G01X44250Y18491D01*
G01X25249Y23012D02*
G01X26749Y23012D01*
G01X25249Y18491D02*
G01X26749Y18491D01*
G01X31751Y23012D02*
G01X33251Y23012D01*
G01X31751Y18491D02*
G01X33251Y18491D01*
G01X14248Y23012D02*
G01X15748Y23012D01*
G01X14248Y18491D02*
G01X15748Y18491D01*
G01X20750Y23012D02*
G01X22251Y23012D01*
G01X20750Y18491D02*
G01X22251Y18491D01*
G01X3247Y23014D02*
G01X4747Y23014D01*
G01X3247Y18493D02*
G01X4747Y18493D01*
G01X9750Y23014D02*
G01X11250Y23014D01*
G01X9750Y18493D02*
G01X11250Y18493D01*
G01X14248Y12011D02*
G01X15748Y12011D01*
G01X14248Y7490D02*
G01X15748Y7490D01*
G01X20750Y12011D02*
G01X22251Y12011D01*
G01X20750Y7490D02*
G01X22251Y7490D01*
G01X25249Y12011D02*
G01X26749Y12011D01*
G01X25249Y7490D02*
G01X26749Y7490D01*
G01X31751Y12011D02*
G01X33251Y12011D01*
G01X31751Y7490D02*
G01X33251Y7490D01*
G01X36247Y12011D02*
G01X37747Y12011D01*
G01X36247Y7490D02*
G01X37747Y7490D01*
G01X42749Y12011D02*
G01X44250Y12011D01*
G01X42749Y7490D02*
G01X44250Y7490D01*
G01X47248Y12011D02*
G01X48748Y12011D01*
G01X47248Y7490D02*
G01X48748Y7490D01*
G01X53750Y12011D02*
G01X55250Y12011D01*
G01X53750Y7490D02*
G01X55250Y7490D01*
G01X58248Y12011D02*
G01X59749Y12011D01*
G01X58248Y7490D02*
G01X59749Y7490D01*
G01X64751Y12011D02*
G01X66251Y12011D01*
G01X64751Y7490D02*
G01X66251Y7490D01*
G01X69249Y12011D02*
G01X70749Y12011D01*
G01X69249Y7490D02*
G01X70749Y7490D01*
G01X75752Y12011D02*
G01X77252Y12011D01*
G01X75752Y7490D02*
G01X77252Y7490D01*
G01X80247Y12011D02*
G01X81748Y12011D01*
G01X80247Y7490D02*
G01X81748Y7490D01*
G01X86750Y12011D02*
G01X88250Y12011D01*
G01X86750Y7490D02*
G01X88250Y7490D01*
G01X3248Y12011D02*
G01X4748Y12011D01*
G01X3248Y7490D02*
G01X4748Y7490D01*
G01X9751Y12011D02*
G01X11251Y12011D01*
G01X9751Y7490D02*
G01X11251Y7490D01*
G01X91248Y12011D02*
G01X92748Y12011D01*
G01X91248Y7490D02*
G01X92748Y7490D01*
G01X97751Y12011D02*
G01X99251Y12011D01*
G01X97751Y7490D02*
G01X99251Y7490D01*
G01X102248Y12011D02*
G01X103748Y12011D01*
G01X102248Y7490D02*
G01X103748Y7490D01*
G01X108751Y12011D02*
G01X110251Y12011D01*
G01X108751Y7490D02*
G01X110251Y7490D01*
G01X102248Y45011D02*
G01X103748Y45011D01*
G01X102248Y40490D02*
G01X103748Y40490D01*
G01X108751Y45011D02*
G01X110251Y45011D01*
G01X108751Y40490D02*
G01X110251Y40490D01*
G54D39*
G01X4749Y83250D03*
G01X108749Y83250D03*
G01X4749Y3250D03*
G01X108749Y3250D03*
G54D40*
G01X2649Y65650D03*
G01X5949Y66450D03*
G01X21250Y52000D03*
G01X23749Y50501D03*
G01X4500Y50750D03*
G01X3850Y52950D03*
G01X26999Y51000D03*
G01X100999Y77000D03*
G01X99499Y74750D03*
G01X105499Y73750D03*
G01X110749Y77250D03*
G54D41*
G01X18410Y82710D03*
G01X20950Y82710D03*
G01X23490Y82710D03*
G01X26030Y82710D03*
G01X28570Y82710D03*
G01X31110Y82710D03*
G01X33650Y82710D03*
G54D42*
G01X89378Y52750D03*
G01X97120Y52750D03*
G54D43*
G01X57709Y68750D03*
G01X62789Y68750D03*
G54D42*
G01X95628Y67500D03*
G01X103370Y67500D03*
G01X95628Y62250D03*
G01X103370Y62250D03*
G54D44*
G01X62279Y81000D03*
G01X54659Y81000D03*
G01X90219Y81000D03*
G01X97839Y81000D03*
G54D45*
G01X110749Y71600D03*
G01X110749Y69060D03*
G01X110749Y66520D03*
G01X110749Y63980D03*
G01X110749Y61440D03*
G36*
G01X109748Y57899D02*
G01X109748Y59903D01*
G01X111752Y59903D01*
G01X111752Y57899D01*
G01X109748Y57899D01*
G37*
G54D43*
G01X87249Y63270D03*
G01X87249Y60730D03*
G54D42*
G01X70959Y68750D03*
G01X73540Y68750D03*
G01X47459Y68750D03*
G01X50040Y68750D03*
G01X103209Y52750D03*
G01X105790Y52750D03*
G36*
G01X79301Y59618D02*
G01X79301Y62003D01*
G01X80716Y62003D01*
G01X80716Y59618D01*
G01X79301Y59618D01*
G37*
G36*
G01X76761Y59618D02*
G01X76761Y62003D01*
G01X78176Y62003D01*
G01X78176Y59618D01*
G01X76761Y59618D01*
G37*
G36*
G01X64061Y59618D02*
G01X64061Y62003D01*
G01X65476Y62003D01*
G01X65476Y59618D01*
G01X64061Y59618D01*
G37*
G36*
G01X61521Y59618D02*
G01X61521Y62003D01*
G01X62936Y62003D01*
G01X62936Y59618D01*
G01X61521Y59618D01*
G37*
G36*
G01X74221Y59618D02*
G01X74221Y62003D01*
G01X75636Y62003D01*
G01X75636Y59618D01*
G01X74221Y59618D01*
G37*
G36*
G01X71681Y59618D02*
G01X71681Y62003D01*
G01X73096Y62003D01*
G01X73096Y59618D01*
G01X71681Y59618D01*
G37*
G36*
G01X66601Y59618D02*
G01X66601Y62003D01*
G01X68016Y62003D01*
G01X68016Y59618D01*
G01X66601Y59618D01*
G37*
G36*
G01X69141Y59618D02*
G01X69141Y62003D01*
G01X70556Y62003D01*
G01X70556Y59618D01*
G01X69141Y59618D01*
G37*
G36*
G01X58981Y59618D02*
G01X58981Y62003D01*
G01X60396Y62003D01*
G01X60396Y59618D01*
G01X58981Y59618D01*
G37*
G36*
G01X56441Y59618D02*
G01X56441Y62003D01*
G01X57856Y62003D01*
G01X57856Y59618D01*
G01X56441Y59618D01*
G37*
G36*
G01X53901Y59618D02*
G01X53901Y62003D01*
G01X55316Y62003D01*
G01X55316Y59618D01*
G01X53901Y59618D01*
G37*
G36*
G01X51361Y59618D02*
G01X51361Y62003D01*
G01X52776Y62003D01*
G01X52776Y59618D01*
G01X51361Y59618D01*
G37*
G36*
G01X48821Y59618D02*
G01X48821Y62003D01*
G01X50236Y62003D01*
G01X50236Y59618D01*
G01X48821Y59618D01*
G37*
G36*
G01X46281Y59618D02*
G01X46281Y62003D01*
G01X47696Y62003D01*
G01X47696Y59618D01*
G01X46281Y59618D01*
G37*
G36*
G01X46281Y51998D02*
G01X46281Y54383D01*
G01X47696Y54383D01*
G01X47696Y51998D01*
G01X46281Y51998D01*
G37*
G36*
G01X48821Y51998D02*
G01X48821Y54383D01*
G01X50236Y54383D01*
G01X50236Y51998D01*
G01X48821Y51998D01*
G37*
G36*
G01X51361Y51998D02*
G01X51361Y54383D01*
G01X52776Y54383D01*
G01X52776Y51998D01*
G01X51361Y51998D01*
G37*
G36*
G01X53901Y51998D02*
G01X53901Y54383D01*
G01X55316Y54383D01*
G01X55316Y51998D01*
G01X53901Y51998D01*
G37*
G36*
G01X56441Y51998D02*
G01X56441Y54383D01*
G01X57856Y54383D01*
G01X57856Y51998D01*
G01X56441Y51998D01*
G37*
G36*
G01X58981Y51998D02*
G01X58981Y54383D01*
G01X60396Y54383D01*
G01X60396Y51998D01*
G01X58981Y51998D01*
G37*
G36*
G01X61521Y51998D02*
G01X61521Y54383D01*
G01X62936Y54383D01*
G01X62936Y51998D01*
G01X61521Y51998D01*
G37*
G36*
G01X64061Y51998D02*
G01X64061Y54383D01*
G01X65476Y54383D01*
G01X65476Y51998D01*
G01X64061Y51998D01*
G37*
G36*
G01X66601Y51998D02*
G01X66601Y54383D01*
G01X68016Y54383D01*
G01X68016Y51998D01*
G01X66601Y51998D01*
G37*
G36*
G01X69141Y51998D02*
G01X69141Y54383D01*
G01X70556Y54383D01*
G01X70556Y51998D01*
G01X69141Y51998D01*
G37*
G36*
G01X71681Y51998D02*
G01X71681Y54383D01*
G01X73096Y54383D01*
G01X73096Y51998D01*
G01X71681Y51998D01*
G37*
G36*
G01X74221Y51998D02*
G01X74221Y54383D01*
G01X75636Y54383D01*
G01X75636Y51998D01*
G01X74221Y51998D01*
G37*
G36*
G01X76761Y51998D02*
G01X76761Y54383D01*
G01X78176Y54383D01*
G01X78176Y51998D01*
G01X76761Y51998D01*
G37*
G36*
G01X79301Y51998D02*
G01X79301Y54383D01*
G01X80716Y54383D01*
G01X80716Y51998D01*
G01X79301Y51998D01*
G37*
G54D45*
G01X3749Y71210D03*
G01X3749Y73750D03*
G01X3749Y76290D03*
M00*
M02*
