;Layer: Drill PTH
;EasyEDA v6.3.53, 2020-06-23T11:31:42+02:00
;9deb55b867614345ac0c6ea2e1a2c697,50b924b206514efda7368a069ed08794,10
;Gerber Generator version 0.2
M48
METRIC,LZ,000.000
;Holesize 1 = 0.310 METRIC
T01C0.310
;Holesize 2 = 0.702 METRIC
T02C0.702
;Holesize 3 = 0.813 METRIC
T03C0.813
;Holesize 4 = 0.814 METRIC
T04C0.814
;Holesize 5 = 0.829 METRIC
T05C0.829
;Holesize 6 = 0.901 METRIC
T06C0.901
;Holesize 7 = 0.915 METRIC
T07C0.915
;Holesize 8 = 1.000 METRIC
T08C1.000
;Holesize 9 = 1.016 METRIC
T09C1.016
;Holesize 10 = 1.200 METRIC
T10C1.200
;Holesize 11 = 1.702 METRIC
T11C1.702
;Holesize 12 = 2.540 METRIC
T12C2.540
%
G05
G90
T01
X+100696Y+049444
X+084696Y+063360
X+091926Y+078823
X+059689Y+057764
X+080997Y+049056
X+061003Y+025221
X+029644Y+048420
X+053462Y+048420
X+058050Y+048450
X+073150Y+048450
X+106327Y+030764
X+110817Y+031578
X+077469Y+066842
T02
X+057709Y+068750
X+062789Y+068750
T03
X+080009Y+060810
X+077469Y+060810
X+064769Y+060810
X+062229Y+060810
X+074929Y+060810
X+072389Y+060810
X+067309Y+060810
X+069849Y+060810
X+059689Y+060810
X+057149Y+060810
X+054609Y+060810
X+052069Y+060810
X+049529Y+060810
X+046989Y+060810
X+046989Y+053190
X+049529Y+053190
X+052069Y+053190
X+054609Y+053190
X+057149Y+053190
X+059689Y+053190
X+062229Y+053190
X+064769Y+053190
X+067309Y+053190
X+069849Y+053190
X+072389Y+053190
X+074929Y+053190
X+077469Y+053190
X+080009Y+053190
T04
X+003749Y+071210
X+003749Y+073750
X+003749Y+076290
T05
X+089378Y+052750
X+097120Y+052750
X+095628Y+067500
X+103370Y+067500
X+095628Y+062250
X+103370Y+062250
X+070959Y+068750
X+073540Y+068750
X+047459Y+068750
X+050040Y+068750
X+103209Y+052750
X+105790Y+052750
T06
X+087249Y+063270
X+087249Y+060730
T07
X+002649Y+065650
X+005949Y+066450
X+021249Y+052001
X+023749Y+050501
X+004499Y+050750
X+003849Y+052950
X+027000Y+051000
X+100999Y+077000
X+099499Y+074750
X+105499Y+073750
X+110749Y+077250
T08
X+018409Y+082710
X+020949Y+082710
X+023489Y+082710
X+026029Y+082710
X+028569Y+082710
X+031109Y+082710
X+033649Y+082710
T09
X+003998Y+045011
X+003998Y+040490
X+010501Y+045011
X+010501Y+040490
X+014998Y+045011
X+014998Y+040490
X+021501Y+045011
X+021501Y+040490
X+025998Y+045011
X+025998Y+040490
X+032501Y+045011
X+032501Y+040490
X+036997Y+045011
X+036997Y+040490
X+043499Y+045011
X+043499Y+040490
X+047998Y+045011
X+047998Y+040490
X+054500Y+045011
X+054500Y+040490
X+058999Y+045011
X+058999Y+040490
X+065501Y+045011
X+065501Y+040490
X+069999Y+045011
X+069999Y+040490
X+076502Y+045011
X+076502Y+040490
X+080997Y+045011
X+080997Y+040490
X+087500Y+045011
X+087500Y+040490
X+091998Y+045011
X+091998Y+040490
X+098501Y+045011
X+098501Y+040490
X+003997Y+034010
X+003997Y+029489
X+010500Y+034010
X+010500Y+029489
X+102998Y+023011
X+102998Y+018490
X+109500Y+023011
X+109500Y+018490
X+014998Y+034010
X+014998Y+029489
X+021501Y+034010
X+021501Y+029489
X+025999Y+034010
X+025999Y+029489
X+032501Y+034010
X+032501Y+029489
X+036997Y+034010
X+036997Y+029489
X+043499Y+034010
X+043499Y+029489
X+047998Y+034010
X+047998Y+029489
X+054500Y+034010
X+054500Y+029489
X+058999Y+034010
X+058999Y+029489
X+065501Y+034010
X+065501Y+029489
X+069999Y+034010
X+069999Y+029489
X+076502Y+034010
X+076502Y+029489
X+080997Y+034010
X+080997Y+029489
X+087500Y+034010
X+087500Y+029489
X+091998Y+034010
X+091998Y+029489
X+098501Y+034010
X+098501Y+029489
X+102999Y+034013
X+102999Y+029491
X+109501Y+034013
X+109501Y+029491
X+091998Y+023012
X+091998Y+018491
X+098501Y+023012
X+098501Y+018491
X+080997Y+023012
X+080997Y+018491
X+087500Y+023012
X+087500Y+018491
X+069999Y+023012
X+069999Y+018491
X+076502Y+023012
X+076502Y+018491
X+058999Y+023012
X+058999Y+018491
X+065501Y+023012
X+065501Y+018491
X+047998Y+023012
X+047998Y+018491
X+054500Y+023012
X+054500Y+018491
X+036997Y+023012
X+036997Y+018491
X+043499Y+023012
X+043499Y+018491
X+025999Y+023012
X+025999Y+018491
X+032501Y+023012
X+032501Y+018491
X+014998Y+023012
X+014998Y+018491
X+021501Y+023012
X+021501Y+018491
X+003997Y+023014
X+003997Y+018493
X+010500Y+023014
X+010500Y+018493
X+014998Y+012011
X+014998Y+007490
X+021501Y+012011
X+021501Y+007490
X+025999Y+012011
X+025999Y+007490
X+032501Y+012011
X+032501Y+007490
X+036997Y+012011
X+036997Y+007490
X+043499Y+012011
X+043499Y+007490
X+047998Y+012011
X+047998Y+007490
X+054500Y+012011
X+054500Y+007490
X+058999Y+012011
X+058999Y+007490
X+065501Y+012011
X+065501Y+007490
X+069999Y+012011
X+069999Y+007490
X+076502Y+012011
X+076502Y+007490
X+080997Y+012011
X+080997Y+007490
X+087500Y+012011
X+087500Y+007490
X+003998Y+012011
X+003998Y+007490
X+010501Y+012011
X+010501Y+007490
X+091998Y+012011
X+091998Y+007490
X+098501Y+012011
X+098501Y+007490
X+102998Y+012011
X+102998Y+007490
X+109501Y+012011
X+109501Y+007490
X+102998Y+045011
X+102998Y+040490
X+109501Y+045011
X+109501Y+040490
T10
X+110749Y+071600
X+110749Y+069060
X+110749Y+066520
X+110749Y+063980
X+110749Y+061440
X+110749Y+058900
T11
X+062279Y+081000
X+054659Y+081000
X+090219Y+081000
X+097839Y+081000
T12
X+004749Y+083250
X+108749Y+083250
X+004749Y+003251
X+108749Y+003251
M30
